<?xml version="1.0" standalone="no"?>
<!DOCTYPE svg PUBLIC "-//W3C//DTD SVG 1.1//EN" "http://www.w3.org/Graphics/SVG/1.1/DTD/svg11.dtd" >
<svg xmlns="http://www.w3.org/2000/svg" xmlns:xlink="http://www.w3.org/1999/xlink" version="1.1">
<metadata>
Created by FontForge 20180930 at Mon Oct  8 19:03:44 2018
 By root
Copyright (c) 2018 by joorgemoron@gmail.com. All rights reserved.
</metadata>
<defs>
<font id="JMHSindbad" horiz-adv-x="618" >
  <font-face 
    font-family="JMH Sindbad"
    font-weight="400"
    font-stretch="normal"
    units-per-em="1024"
    panose-1="2 0 5 3 0 0 0 2 0 4"
    ascent="819"
    descent="-205"
    x-height="757.5"
    cap-height="760"
    bbox="-212 -327 1645.06 1060"
    underline-thickness="0"
    underline-position="0"
    unicode-range="U+0020-2122"
  />
    <missing-glyph />
    <glyph glyph-name="space" unicode=" " horiz-adv-x="305" 
 />
    <glyph glyph-name="b" unicode="b" horiz-adv-x="651" 
d="M525 76q41 35 17 118q-21 71 -101 134q-23 18 -45 30t-42.5 17.5t-40.5 5t-38 -7.5l-21 -8v-124q0 -125 10 -138q12 -15 72 -28.5t120 -15.5q46 -1 64 12zM91 29q14 38 29 128t20 168q2 29 1 74.5t-3 90.5t-6 81.5t-8 46.5q-1 5 2 8.5t11.5 7.5t24.5 10q84 27 119 57
q12 10 13 9l-3 -11q-13 -35 -27.5 -168t-5.5 -141q6 -7 77 28.5t94 56.5q10 10 15.5 16t9 13.5t4.5 14.5t1 19q-1 52 -48.5 108.5t-103.5 72.5q-42 11 -93.5 -3.5t-88 -45.5t-36.5 -64q0 -12 -2.5 -18t-9 -11.5t-21.5 -13.5q-33 -18 -39 -18q-5 0 -6 15t2.5 34t9.5 29
q9 15 25 28t43.5 27.5t73.5 34.5q76 33 125 48t83 15t62 -15q10 -5 23 -15t26 -22.5t24.5 -26t20.5 -26t13 -21.5q11 -25 10.5 -54t-10.5 -50q-11 -20 -39 -45.5t-60 -43.5q-31 -18 -31 -22t27 -1t70 -18t68 -49q15 -18 27 -37.5t20 -39t11.5 -38.5t0.5 -34
q-6 -49 -58 -111.5t-117 -100.5q-17 -10 -27 -13.5t-30.5 -4.5t-53.5 2q-76 4 -136.5 12t-99.5 -2l-38 -10z" />
    <glyph glyph-name="c" unicode="c" horiz-adv-x="537" 
d="M381 777q20 0 41 -7q20 -7 40 -23t32 -35q4 -6 4 -10q-1 -6 -43 -16q-36 -9 -45 -7t-25 20q-28 35 -74 36q-33 -2 -71 -14q-15 -8 -29.5 -23.5t-25.5 -33.5t-23 -42q-36 -78 -36 -188q0 -147 62 -243q66 -102 175 -102q22 0 44 5q40 8 89 48l19 17q4 0 8 -7q5 -5 5 -11
q0 -21 -47 -73q-77 -84 -185 -84q-121 0 -201.5 99.5t-80.5 256.5q0 158 90 293q11 15 18 24.5t18.5 23.5t23.5 24t25 17q13 4 24 8t21.5 8t20 7.5t17.5 6.5q20 6 36 11t29.5 8t24 4.5t19.5 1.5z" />
    <glyph glyph-name="d" unicode="d" horiz-adv-x="796" 
d="M592 80q36 14 51.5 37.5t18.5 68.5q6 84 -42.5 197t-127.5 203q-30 33 -85.5 72t-67.5 34q-5 -2 -11 -12t-9 -22q-7 -24 -13 -96.5t-9 -160t-1 -148.5q2 -82 5.5 -102t16.5 -34q34 -36 137 -47q86 -9 137 10zM118 -7q42 101 54 291.5t-16 305.5q-2 7 -1 11.5t5.5 7
t13.5 4.5q25 6 72 28.5t64 36.5q13 11 14.5 15t-6.5 10q-10 5 -29.5 5t-46 -6t-48.5 -15q-105 -47 -93 -130q3 -24 -2 -32t-36 -29q-37 -25 -42 -22q-2 2 -5 11q-2 11 -3.5 23.5t-0.5 24.5t3.5 24t6.5 22q8 18 19 31t36.5 31t62.5 38t103 54q38 19 57.5 23.5t64.5 4.5
q33 0 49 -1.5t30 -7t38 -18.5q49 -27 91.5 -65.5t79 -89.5t66.5 -115q66 -158 24 -250q-13 -26 -53 -72t-86.5 -87.5t-73.5 -55.5q-15 -8 -38.5 -12.5t-51.5 -5.5t-60.5 1.5t-66.5 8.5q-73 14 -111.5 14t-63.5 -13q-23 -12 -23 -9q-1 2 3 10z" />
    <glyph glyph-name="e" unicode="e" horiz-adv-x="537" 
d="M381 763q11 0 20.5 -1.5t20.5 -5.5q7 -3 15.5 -7t16.5 -10t15 -12.5t13.5 -13.5t11.5 -15q6 -10 1 -13.5t-40 -12.5q-27 -6 -36.5 -7t-15.5 2.5t-18 17.5q-28 35 -74 36q-33 -2 -71 -14q-41 -20 -78 -99q-36 -78 -36 -188q0 -23 1 -45q70 34 107.5 49t65 19.5t45.5 -2.5
q14 -3 29 -10.5t28 -18t22 -22.5q6 -7 6 -10q-1 -6 -43 -21q-36 -12 -45 -11t-26 18q-60 59 -160 2q-7 -3 -13.5 -7.5t-12.5 -9.5q11 -101 58 -174q66 -102 175 -102q3 0 7 0.5t7.5 0.5t7.5 0.5t7.5 1l7 1t7.5 1.5q40 8 89 48l19 17q4 0 8 -7q3 -3 4 -5.5t1 -5.5
q0 -21 -47 -73q-77 -84 -185 -84q-121 0 -201.5 100t-80.5 256q0 159 90 293q5 7 8.5 11.5t9 12t9.5 13t9.5 12t11 11.5t11.5 10.5t12.5 10t13.5 8.5q51 19 83 30q75 25 109 25z" />
    <glyph glyph-name="f" unicode="f" horiz-adv-x="517" 
d="M388 784q9 0 17.5 -1t17.5 -3q16 -4 32 -11.5t30.5 -18.5t24.5 -23q7 -7 6 -10q-1 -6 -48 -20q-23 -7 -31.5 -9t-18 -1t-14 4.5t-15.5 13.5q-49 45 -126 24l-2 -2t-1.5 -2.5t-1.5 -3.5q-21 -36 -35.5 -128t-19.5 -202q34 14 59 23t44 14.5t34.5 7.5t28 1.5t25.5 -3.5
q24 -5 48.5 -19t39.5 -32q7 -8 7 -11q-1 -5 -48 -20q-29 -9 -39.5 -10.5t-18 1.5t-22.5 16q-60 53 -158 11q-3 -96 3 -175q11 -124 17 -143q2 -7 2 -11q0 -6 -5 -3q-15 8 -83.5 -11t-118.5 -44q-5 -3 15 68q34 119 43 275l-2 1l1 0.5l1 0.5q13 220 -27 342q-4 11 -1 14t15 3
q7 0 19.5 2.5t29.5 7.5t32.5 10t36.5 11q26 11 46.5 19.5t38.5 15t33 11.5t27.5 9t23.5 6.5t20 3.5t18 1z" />
    <glyph glyph-name="g" unicode="g" horiz-adv-x="574" 
d="M372 774q11 0 21 -2t20 -5q20 -7 40 -23t32 -35q7 -11 1.5 -14.5t-40.5 -11.5q-36 -9 -45 -7.5t-24 20.5q-29 34 -75 36q-33 -2 -71 -14q-40 -21 -78 -99q-36 -78 -36 -189q0 -146 62 -242q66 -102 175 -102q22 0 44 4q40 9 89 49l15 13q4 108 -72 135q-13 5 -18 7
t-9.5 9.5t-5.5 15.5t-3 30q-4 37 -2.5 43t14.5 3q7 -1 14.5 -4t15 -6.5t14.5 -8t13.5 -9t12 -10t10.5 -11.5q15 -18 21.5 -38.5t9.5 -58.5t2 -114v-41t-0.5 -41t-1 -40.5t-3.5 -40.5t-7 -42t-10.5 -43.5t-16.5 -45.5q-6 -8 -15.5 -16t-20.5 -14t-22.5 -11t-22.5 -7
q-12 -3 -13.5 3.5t2.5 43.5q5 37 9.5 45t27.5 16q28 10 45 30.5t24 51.5q9 39 10 120q-46 -57 -94.5 -85.5t-122.5 -36.5q-121 0 -201.5 99.5t-80.5 256.5q0 158 91 292q14 21 23.5 34t26.5 30t34 25q51 19 83 30q75 25 109 26z" />
    <glyph glyph-name="h" unicode="h" horiz-adv-x="637" 
d="M225 762q9 0 -3 -26q-18 -38 -30 -139.5t-14 -219.5q2 3 4 5t4 4.5t4 4.5l4 4q13 12 29.5 18.5t35.5 6.5h7q23 0 37 -3q17 -4 36 -11q2 -1 8.5 -3t9 -3t6 -2t5.5 -1q10 -3 25 -3q22 0 64 14q2 177 -24 277q-2 7 -1.5 11t3.5 5t10 1q16 0 66.5 17.5t74.5 31.5t29 11
t-5 -26q-25 -54 -38 -219t-4 -307q4 -51 7.5 -93t5.5 -50q2 -7 2 -11q0 -6 -4 -3q-12 8 -71.5 -11.5t-98.5 -43.5q-4 -3 12 68q30 132 35 304l-2 -2q-24 -24 -64 -33q-3 -1 -5 -1t-4 -0.5t-4.5 -0.5h-4.5q-16 0 -42 9l-4 2l-3 1q-4 2 -7 3t-6.5 2t-6 1.5t-6 1t-5.5 1t-6 1
t-6 0.5q-7 1 -14.5 1.5t-14.5 0.5q-33 0 -74 -15q0 -72 4 -132q8 -124 13 -143q2 -7 2 -11q0 -6 -5 -3q-12 8 -71.5 -11.5t-97.5 -43.5q-4 -3 12 68q21 93 30 212t4.5 229t-22.5 178q-3 11 -1 14t12 3q17 0 67.5 17.5t74.5 31.5q20 11 26 11z" />
    <glyph glyph-name="i" unicode="i" horiz-adv-x="255" 
d="M230 695q-36 -137 -41 -326t25 -288q3 -10 1 -13.5t-13 -3.5q-19 0 -76 -16t-84 -30q-14 -6 -21.5 -8.5t-10.5 -1t-1.5 7.5t7.5 17q28 51 43 219t5 306q-4 48 -8 88.5t-6 47.5q-5 15 0 14q1 0 3 -1q13 -8 80 10.5t111 42.5q4 2 -14 -65z" />
    <glyph glyph-name="j" unicode="j" horiz-adv-x="263" 
d="M243 758q10 0 -3 -26q-28 -54 -42.5 -219t-3.5 -308q1 -16 5 -48t6.5 -55t1.5 -52.5t-8 -52.5q-3 -13 -10 -27.5t-13.5 -27t-17.5 -27.5t-18 -24.5t-19.5 -24.5l-17.5 -21t-17.5 -19.5t-13.5 -15.5q-85 -96 -169 -98q-26 0 -66 16q-49 19 -49 45q0 11 13 43q13 31 20 31
q5 0 13 -19q11 -25 12 -26q33 -43 84 -42q31 1 54 22.5t35.5 58.5t18.5 75.5t8 85.5q1 25 7 154t7 184.5t-3 156t-15 183.5q-3 7 -2.5 11t4 5.5t10.5 1.5q9 0 30.5 5t45 12t47.5 16t37 15q22 12 29 12z" />
    <glyph glyph-name="k" unicode="k" horiz-adv-x="702" 
d="M522 785q35 -25 80.5 -45.5t70.5 -22.5q4 0 6 -1q4 -1 2 -2q-2 -2 -18 -7q-66 -21 -154.5 -87t-184.5 -163q2 -1 4.5 -2t4.5 -2q28 -15 54 -43q43 -37 100 -159q5 -8 8 -13l22 -45l-1 -1l8 -18.5t22.5 -49t30.5 -66.5l3 -6t2 -5q64 -125 105 -179q17 -23 35 -39t35 -23.5
t32 -5.5q17 1 19.5 -5.5t-12.5 -13.5q-13 -5 -45.5 -47.5t-32.5 -51.5q1 -5 -2 -7q-1 -1 -3 -1l-1 -1q-3 0 -8 1t-11.5 3t-15 6t-18.5 9q-27 15 -53 43q-43 36 -101 159q-2 4 -4 7.5t-4 5.5l-22 45h2q0 2 -62 135q-1 2 -2.5 6t-2.5 5q-64 125 -105 179q-26 34 -53 52t-48 16
q-14 -1 -19 3q-2 -94 4 -172q9 -124 14 -143q2 -7 3 -11q0 -6 -5 -3q-14 8 -81 -11.5t-110 -43.5q-5 -3 13 68q36 143 40.5 336t-26.5 297q-3 11 -1 14t13 3q19 0 76 17.5t84 31.5t32.5 11t-6.5 -26t-22 -75.5t-17 -118.5t-9 -136q132 132 160 156q132 110 198 154
q2 3 -64.5 37t-94.5 33q-11 0 -19 0.5t-8.5 2t16 9.5t40.5 18l58 23z" />
    <glyph glyph-name="l" unicode="l" horiz-adv-x="545" 
d="M251 762q10 0 -3 -26q-14 -26 -25 -81.5t-17.5 -124t-8 -146.5t4.5 -148q9 -124 14 -143l3 -10q0 -5 -6 -4q-19 1 -52 -16q15 1 55 7t65 8.5t70.5 4.5t70.5 -3q-2 3 -10 22t-15 34.5t-19.5 36t-25.5 35.5q-21 17 -19.5 20.5t60.5 -16.5l60 -20l14 -57q12 -45 33 -96
t38 -68l6 -7q-1 -2 -19 6q-66 26 -159.5 35t-183.5 2t-163 -26q-3 0 4.5 41t12.5 54q36 143 40 324t-26 285q-3 11 -1 14t13 3q19 0 76 17.5t84 31.5q11 6 18.5 8.5t10.5 2.5z" />
    <glyph glyph-name="m" unicode="m" horiz-adv-x="826" 
d="M212 774q11 0 24 -5.5t27.5 -16t30.5 -25.5t33 -34t34.5 -41.5t34.5 -48t35 -53.5t34 -58q23 31 40 71.5t35.5 95.5t31.5 86q2 14 7.5 20.5t12.5 5t15 -10.5q4 -5 18.5 -13.5t31.5 -15.5l40 -17l1 -240q0 -195 7 -266.5t31 -119.5q9 -17 23 -32.5t30 -26.5q25 -16 25 -18
q-1 -1 -14 3q-21 6 -52 6.5t-60 -3.5t-44 -12l-28 -15l-31 28q-31 29 -50 38l-18 10l17 6q29 11 73 12.5t69 -7.5q5 -2 10.5 -3.5t9.5 -2.5t7 -2t4.5 -1h1.5q0 2 -23 25q-28 29 -34.5 74.5t-1.5 188.5q5 170 0 217l-6 48l-27 -80q-28 -80 -69 -155.5t-94 -134.5q-2 -2 -4 -5
t-3 -4q-54 115 -91 174q-34 52 -68.5 98t-58.5 70t-28 16q-9 -14 -16 -128t-4 -203q2 -83 6 -112.5t15 -50.5q31 -61 93 -43q27 7 28.5 5.5t-15.5 -20.5q-6 -6 -12 -14t-11.5 -15.5t-7.5 -12.5q-4 -8 -6.5 -11t-12 -4.5t-20 -1t-37.5 3.5q-136 13 -167 -4q-18 -9 -18 -5.5
t32 34.5q48 49 66.5 145t14.5 279l-4 158l23 11q16 8 19.5 13.5t-2 11t-23.5 14.5q-50 24 -84 0q-7 -5 -13.5 -7.5t-8.5 -1.5q-3 3 34.5 35t80 63t52.5 34q3 0 5 0.5t4 0.5z" />
    <glyph glyph-name="n" unicode="n" horiz-adv-x="773" 
d="M43 24q47 47 64.5 140t13.5 270l-3 152l22 11q26 13 18 22q-6 6 -24 15q-48 23 -81 1q-7 -5 -13.5 -8t-7.5 -1q-3 3 33 33.5t77.5 61t50.5 32.5q41 10 112 -67t143.5 -206.5t116.5 -261.5l27 -81l6 48q5 47 0 217q-5 143 1.5 189t34.5 74q23 23 23 25q0 1 -1 0.5
t-2.5 -0.5t-4 -0.5t-5 -1.5t-6 -2t-7.5 -2.5t-7 -2.5q-17 -6 -43 -7t-53 2t-46 10l-17 6l18 10q18 10 50 38l31 28l28 -15q22 -12 72.5 -15t82.5 6q14 4 14 3q1 -2 -22 -17l-2 -1q-34 -23 -53 -59q-24 -48 -31.5 -119.5t-7.5 -265.5v-241l-41 -17q-16 -7 -31 -15.5
t-19 -12.5q-11 -14 -20.5 -10t-14.5 24q-11 53 -72.5 188.5t-105.5 206.5q-33 50 -66 94.5t-56.5 67.5t-27.5 16q-9 -13 -15.5 -123.5t-3.5 -196.5q2 -80 5.5 -108.5t14.5 -49.5q10 -19 23.5 -30.5t30 -14t36.5 3.5q26 7 27.5 5.5t-15.5 -20.5q-20 -21 -30 -40
q-7 -14 -17 -15.5t-56 2.5q-131 13 -162 -3q-16 -9 -16 -6t30 34z" />
    <glyph glyph-name="o" unicode="o" horiz-adv-x="640" 
d="M297 774q34 -1 69 -12q101 -33 168 -133q91 -136 91 -292q-1 -43 -10 -88t-29.5 -91t-49.5 -83t-73 -62.5t-96 -30.5q-70 -6 -138.5 34t-122.5 109q-91 116 -91 292q0 157 81 257q38 43 92 71.5t109 28.5zM364 669q-109 0 -175 -102q-62 -97 -62 -243q0 -110 37 -188
l10 -20q10 -7 20 -12t19 -8.5t18 -5.5q23 -4 45 -4q109 0 175 102q62 96 62 242q0 110 -37 188q-5 11 -10 21q-31 19 -57 25q-23 5 -45 5z" />
    <glyph glyph-name="p" unicode="p" horiz-adv-x="761" 
d="M464 774q92 -2 171 -49q92 -57 113 -133q10 -41 -10 -89t-50 -83t-64 -60q-32 -25 -94 -53q-20 -9 -43 -16t-39 -9.5t-40.5 -6.5t-35.5 -6l-6 -2t-7 -2t-5 -1q1 -49 4 -89q4 -51 9 -93t7 -50q2 -6 2 -10q1 -7 -5 -4q-14 9 -86 -10.5t-118 -44.5q-5 -2 14 68
q38 143 43 329t-28 290q-4 11 -1.5 14.5t14.5 3.5q14 0 52 9q32 13 48 20q7 4 11 6q8 5 -3 9q-22 2 -26.5 1.5t-47.5 -6.5q-36 -9 -55.5 -14.5t-43.5 -14.5t-33 -19.5t-6 -22.5q3 -14 -2 -19t-39 -18q-33 -13 -40 -13.5t-10 6.5q-7 13 -5 29.5t11 28.5q8 10 24 19t56 22.5
t76.5 24.5t118.5 35q10 2 17.5 4t14.5 4t12 3t12 2t11.5 2t12.5 1.5t13.5 1l16.5 1.5q9 1 14 2q23 2 45 2zM405 697l-4 -10q-37 -92 -45 -311q2 -40 16 -48q17 -10 41 -10t48.5 9t48.5 29t39 47q35 83 30.5 143.5t-51.5 99.5q-26 20 -55.5 33t-67.5 18z" />
    <glyph glyph-name="q" unicode="q" horiz-adv-x="636" 
d="M291 766h3q44 -1 88 -19t82 -50.5t67 -74.5q91 -137 91 -293q-1 -31 -5 -62.5t-13 -65t-24.5 -64.5t-36 -59t-50 -51t-64.5 -37v-1q-26 -11 -75.5 -35t-90.5 -40q30 -14 95 -27q129 -27 197 89q8 3 7 -15q-20 -53 -59 -160q-25 -23 -91 -10q-36 7 -101.5 46t-102.5 47
q-57 12 -110 -28q-9 8 -10 23q14 27 49.5 44t79 31.5t64.5 29.5q-97 30 -178 133q-91 117 -91 293q0 157 81 256q38 43 90.5 71t107.5 29zM361 661q-109 0 -175 -102q-62 -96 -62 -242q0 -111 37 -189l10 -20q31 -20 57 -26q23 -4 45 -4q109 0 175 102q62 96 62 242
q0 111 -37 189l-2 4l-2 4l-2 4l-2 4l-2 4q-31 20 -57 26q-23 4 -45 4z" />
    <glyph glyph-name="r" unicode="r" horiz-adv-x="834" 
d="M462 762q93 -1 171 -49q43 -27 73 -61t40 -72q10 -41 -10 -89t-50 -83t-63 -60q-33 -24 -95 -53l-5 -2q13 -39 41 -93.5t62 -93.5q43 -57 76 -70q33 -14 63 -10q32 6 51 17l9 -43q-132 -92 -221 -54q-70 30 -159 159q-50 75 -92 147q0 -16 0.5 -30.5t1.5 -29.5t2 -29
q9 -124 15 -143q2 -6 2 -10q1 -7 -5 -3q-14 8 -86 -11.5t-118 -44.5q-5 -2 14 68q39 144 43.5 330t-28.5 289q-3 11 -0.5 14.5t13.5 3.5q14 0 52 10l10.5 3.5t10 4t9.5 4t9 3.5t9 4q7 4 11 6q8 5 -3 9q-4 1 -7.5 1.5t-8 0.5h-7t-9 -1t-10 -1.5t-14.5 -2t-18 -2.5
q-36 -9 -55.5 -14.5t-43 -14.5t-33 -19.5t-6.5 -21.5q4 -15 -1.5 -20t-39.5 -18q-29 -11 -36 -13q-10 -2 -14 6q-6 14 -4.5 30t10.5 28q15 19 68.5 38t206.5 63q9 2 16 4t12.5 3.5t12 2.5t10 2t10.5 2t10 1.5t11.5 1.5t11.5 1t14 1t16 2q23 2 45 2zM404 685q-6 -11 -11 -27
t-9.5 -35.5t-8.5 -42.5t-7.5 -48.5t-6 -53t-4.5 -56.5t-3 -58q2 -40 16 -48q13 -8 31.5 -9.5t38.5 3.5t39.5 15t37.5 27.5t30 39.5q70 167 -21 242q-56 43 -122 51z" />
    <glyph glyph-name="s" unicode="s" horiz-adv-x="646" 
d="M314 -15q-151 18 -251 89q-49 35 -50.5 65t44 78.5t58.5 68.5q10 16 11 9l-2 -34q-4 -33 -0.5 -42.5t23.5 -29.5q42 -41 105.5 -69.5t132.5 -38.5q153 -21 153 81q0 21 -6.5 33t-31.5 36q-29 29 -66.5 45t-179.5 61q-76 24 -130.5 55.5t-69.5 60.5q-21 39 3 88.5
t100 127.5q56 57 101.5 78t110.5 21q55 0 102.5 -15t95.5 -47q37 -24 44.5 -44.5t-6.5 -55.5q-14 -33 -28 -71q-10 -29 -13 -30q-2 2 -5 14q-6 29 -34 56.5t-68 48.5t-90 34t-97 13q-83 -1 -117.5 -39.5t5.5 -85.5q41 -50 227 -107q106 -33 154.5 -61t69.5 -69
q23 -45 7.5 -87.5t-86.5 -127.5q-48 -58 -66 -74.5t-46 -27.5q-37 -15 -104 -7z" />
    <glyph glyph-name="t" unicode="t" horiz-adv-x="675" 
d="M663 781q4 0 4.5 -5t-1.5 -19q-4 -27 -3 -150q1 -97 -2 -109q-2 -10 -12 -2q-10 9 -27 55.5t-28 94.5q-2 10 -10.5 24t-17.5 23q-16 17 -26.5 19.5t-48.5 0.5q-12 -1 -25 -3l-3 -6t-5 -8q-29 -49 -45.5 -236t-4.5 -322q10 -116 16 -133q2 -7 2 -10q0 -6 -5 -3
q-10 5 -47.5 -1.5t-83.5 -21t-76 -29.5q-5 -2 14 64q26 86 37.5 214.5t5.5 247.5t-27 182q-4 10 -1.5 13.5t14.5 3.5q16 0 61 10.5t82 23.5q-19 -4 -35 -5.5t-31 -1.5q-19 0 -75 4t-121 5h-23l-3 -54q-3 -55 -20 -108q-7 -24 -25.5 -64.5t-34.5 -70.5t-19 -27t7 41
q10 40 13 100.5t-4 93.5q-7 36 -10 49.5t23 30.5q7 5 18 13.5t22.5 19t20.5 19.5l34 33l58 -9q22 -3 48.5 -5.5t55.5 -3.5t59.5 -1.5t60.5 0t60 2.5t57 4q98 10 116 15q8 2 11 2z" />
    <glyph glyph-name="u" unicode="u" 
d="M37 703q30 1 78 21q60 25 71 25q19 1 17 -26q-6 -36 -9 -132t-7 -134q-6 -47 -8 -67t-3.5 -63t5 -79.5t19.5 -74.5q35 -93 136 -127q5 -2 10 -3t10 -1q59 -2 113 82q50 76 52 145q2 55 -26 158q-7 29 -12 51t-9.5 52.5t-4.5 56.5t4.5 55.5t15.5 55.5q19 4 35 10
t23.5 10.5t5.5 6.5q-2 1 -6 1.5t-9 1.5t-10.5 1.5t-11 1.5t-10.5 1.5t-9.5 1t-6.5 0.5q-52 8 -78.5 -6.5t-43.5 -53.5q-8 -16 -13 -21t-14 -7t-36 -3q-34 -1 -40 0q-8 2 -4 15q6 22 21 43t33 33q30 21 66.5 23.5t173.5 -10.5q31 -3 46 -7l-5 -4q-6 -11 -9.5 -23.5t-5 -26.5
t-1.5 -32q-2 -38 7 -115q9 -76 8 -115q-5 -145 -78 -276q-85 -153 -205 -149q-100 3 -194 92q-100 95 -97 204q1 13 11 75.5t10 110.5q0 22 -1.5 50t-3.5 54t-4 48t-4 39.5t-2 19.5q0 6 8 10q1 0 2 1z" />
    <glyph glyph-name="v" unicode="v" horiz-adv-x="826" 
d="M125 792q12 4 51 -29q29 -24 50.5 -67.5t44.5 -120.5q11 -39 17 -57l12 -49h-1q0 -1 31 -144t44 -176q8 -18 13 -13q3 3 19 33.5t37 70.5q7 15 25 51.5t33 67.5t32 64t27 50q88 148 137 211q0 3 -74 13.5t-99.5 0.5t-27.5 -7t45 44l47 42l57 -17q42 -12 91.5 -16.5
t73.5 1.5q6 1 8 1q6 1 -13 -13q-56 -41 -118.5 -133.5t-120 -212t-102.5 -250.5q-19 -53 5 -106q3 -7 -3 -13.5t-19.5 -12.5t-26.5 -10.5t-30 -9.5t-24 -8q-26 -7 -42 -1q-18 6 -32.5 24t-28.5 51t-26.5 81t-26.5 117q-12 62 -29.5 131t-36 127t-33.5 90q-18 39 -40 62.5
t-44 25.5q-17 2 -18.5 9.5t15.5 10.5q8 2 31.5 19.5t44 36t21.5 24.5q0 6 4 7z" />
    <glyph glyph-name="w" unicode="w" horiz-adv-x="1147" 
d="M131 797q13 0 49 -30q28 -24 50 -67t44 -120q11 -40 18 -57l12 -49h-2q0 -2 31 -145q32 -144 45 -175q7 -18 13 -13q6 6 55 103q8 15 28.5 58t28.5 59q-41 166 -75 241q-5 11 -10.5 21t-11.5 18.5t-12 16t-12.5 13t-13 9.5t-12.5 6.5t-12 3.5q-18 2 -19 9.5t16 10.5
q13 2 54 36.5t42 43.5q1 4 5 6q6 2 18.5 -5t32.5 -24q29 -24 50.5 -67t43.5 -120q2 -7 4 -13t3.5 -11t3 -9.5t2.5 -8.5q27 44 51.5 81.5t48.5 69.5q-51 15 -80 25q-41 14 -40 20q2 7 86 4q135 -5 148 12q5 1 7 1q6 0 -13 -14q-90 -66 -193 -256l2 -7h-1q-1 -2 31 -145
q31 -142 44 -175q7 -18 13 -13q6 6 55 103q5 9 12 23.5l14 29t15.5 32t16.5 34t17 34t16.5 32t14.5 27.5t12 22q28 46 43.5 72t43 67.5t50.5 71.5q0 3 -74 13q-21 3 -36.5 4.5t-27 1.5t-20 -1.5t-16.5 -3.5q-25 -10 -27 -7t45 44l47 41l57 -16q20 -6 44.5 -10.5t46.5 -6.5
t42 -1.5t32 3.5q5 1 7 1q6 0 -13 -14q-55 -41 -118 -133t-120 -211.5t-102 -250.5q-22 -59 5 -106q33 4 54 28t12 46q-3 6 -1.5 10.5t7.5 8.5t20 10q9 4 17 7t13 4.5t7 1.5q4 -1 1 -32q-4 -32 -36.5 -55t-120.5 -57q-59 -22 -81 -27.5t-37 0.5q-24 8 -43 38t-36 86.5
t-35 148.5q-3 13 -6 28q-29 -69 -54 -140q-9 -25 -9 -53.5t15 -52.5q3 -9 -45 -31q-75 -32 -100 -24q-41 11 -63.5 69.5t-50.5 203.5q-19 94 -48 197t-51 151q-18 39 -40.5 62.5t-44.5 25.5q-17 2 -18 9.5t15 10.5q14 2 55 36.5t42 43.5q0 3 1.5 4.5t3.5 1.5q1 1 2 1z" />
    <glyph glyph-name="x" unicode="x" horiz-adv-x="650" 
d="M436 764q41 -14 90.5 -20.5t74.5 -1.5q8 2 9 1q0 -2 -16 -13q-74 -51 -164 -188q-23 -36 -55 -94q5 -12 11.5 -27t13.5 -32t14 -35q1 -3 3 -7q1 -3 2 -4q18 -39 35.5 -73.5t34 -63.5t28.5 -46q17 -24 34 -40.5t34 -24.5t31 -7q11 1 16.5 -2t3 -8t-13.5 -9
q-6 -2 -19.5 -16t-27 -30t-24 -31t-10.5 -19q1 -5 -3 -7q-1 -1 -2 -1h-1q-13 -2 -52 20q-27 16 -52 45q-42 38 -95 163q-4 8 -7 13l-20 46h1l-2.5 6t-6.5 15.5t-9 23.5q-6 -10 -11 -18q-93 -144 -144 -205q-1 -3 73 -16.5t99 -4.5q7 2 13.5 4t10 2.5t4.5 -0.5q2 -3 -47 -43
l-48 -39l-57 18q-41 14 -90 20.5t-74 1.5q-9 -2 -9 -1q-1 2 15 13q101 69 221 281q11 16 23 37q-10 24 -17 42l-3 6t-2 5q-60 128 -98 183q-25 35 -51 54t-48 18q-11 -1 -16.5 2t-3 8t13.5 9q12 5 46.5 46t34.5 50q-1 2 0 4t3 3q1 1 3 1q7 1 20 -4.5t32 -16.5q7 -3 13.5 -8
t13 -10.5t13 -12t12.5 -14.5q22 -19 44.5 -58.5t50.5 -103.5l7 -14l16 -34q4 7 8 13.5t9 13.5t9 13q60 91 104 144q0 3 -73.5 16t-99 4t-27.5 -6t46 43l49 39z" />
    <glyph glyph-name="y" unicode="y" horiz-adv-x="588" 
d="M407 766q42 -10 91.5 -12.5t74.5 4.5q5 1 7 2q6 0 -13 -15q-48 -57 -92 -126t-68 -114.5t-62 -125t-53 -109.5q-82 -151 -128 -216q0 -3 74.5 -10.5t99.5 3.5q7 3 13 5t10 3t4 0q2 -2 -43 -46l-45 -43l-58 14q-42 10 -91.5 12.5t-73.5 -4.5q-5 -2 -7 -2q-6 0 12 14
q32 26 66 71t67 102t64 126q10 16 20 38q-12 23 -21 41q-1 2 -3 5.5t-2 4.5q-32 56 -62 103t-51 71q-18 22 -36.5 37.5t-36 22t-31.5 4.5q-17 -2 -20 4.5t12 14.5q12 6 43 49.5t30 52.5q-1 5 3 7q1 1 3 2q6 1 19.5 -3t33.5 -14q29 -13 56 -40q44 -35 107 -155q5 -8 9 -12
l18 -34l5.5 11t5.5 10.5l6 11t6 10.5q53 95 92 151q0 3 -74.5 10t-99.5 -4q-5 -2 -9.5 -3.5t-8.5 -2.5t-6.5 -1.5l-2.5 -0.5q-2 3 43 46l45 44z" />
    <glyph glyph-name="z" unicode="z" horiz-adv-x="571" 
d="M59 824q4 -1 9 -15q13 -43 66 -56q9 -3 22.5 -4.5t29.5 -2t33.5 -0.5t35.5 1h3q3 1 4 1q16 1 72 10t95.5 8.5t65.5 -16.5q22 -9 38 -26q23 -25 27 -37v-4q0 -2 -0.5 -3.5t-2.5 -2.5q-4 -3 -14 -52.5t-9 -62.5q2 -17 -2 -18t-9 15q-4 15 -15.5 27.5t-28.5 20.5
q-183 -246 -308 -432q31 -6 86 -28t70 -26q2 -1 4 -1.5t3 -1.5q79 -22 119 -21q55 2 77 41q5 9 9 11.5t4.5 -2t-2.5 -15.5q-5 -12 -6 -62.5t3 -54.5q1 -1 1.5 -3t-0.5 -4q0 -1 -1 -3q-3 -5 -11.5 -13t-22.5 -17q-19 -14 -43 -18q-24 -5 -42.5 -4.5t-46.5 8.5t-48.5 16
t-47 18.5t-42.5 15.5q-52 18 -126 23q-52 3 -77 -40q-5 -10 -9 -12.5t-4 2.5t3 15q2 7 4 29q6 80 -1 88l-1 7v2l1 1q6 12 33 31q20 13 44 17q3 1 7 2q157 239 308 445q-35 2 -80 0h-3q-3 -1 -4 -1q-19 -1 -53.5 -6.5t-59.5 -8t-55.5 -2.5t-56.5 10.5t-46 30.5q-23 25 -27 37
v2v2q0 4 3 6q1 1 3.5 8.5t5 19t5.5 25t5 25.5t3 22.5t1 14.5q-2 18 2 18z" />
    <glyph glyph-name="zero" unicode="0" horiz-adv-x="492" 
d="M240 766q113 -43 176 -138t63 -223q0 -126 -59 -230q-58 -103 -158 -175q-71 19 -130 71q-57 52 -88 130q-31 77 -31 161q0 119 62.5 232t164.5 172zM154 665q-69 -87 -69 -210q0 -86 33.5 -162.5t94.5 -126.5q63 -49 127 -60q36 55 51 102q15 49 15 107q0 79 -29 151
q-29 73 -87 123t-136 76z" />
    <glyph glyph-name="one" unicode="1" horiz-adv-x="334" 
d="M4 650l124 116q46 -20 67 -55q22 -35 22 -90v-464q0 -19 6 -28q10 -17 39 -41l54 50l16 -19l-131 -119l-121 88l33 50v414q0 42 -5 58q-8 27 -24 42q-11 11 -20 11q-10 0 -27 -16q-11 -10 -18 -16z" />
    <glyph glyph-name="two" unicode="2" horiz-adv-x="494" 
d="M21 594l207 172l240 -160q2 -32 2 -54q0 -91 -44.5 -155t-200.5 -162q-70 -44 -99 -71t-51 -66q60 30 105 42t89 12q37 0 76 -6q40 -6 60 -12l77 -28l-86 -106q-78 30 -106 36q-45 11 -85 11q-76 0 -165 -38q-19 -9 -22 -9t-4 2q-2 3 -2 9q0 26 16 65q22 52 63 102
q30 37 96 96.5t92 90.5q35 44 54 91q19 48 19 102q0 80 -53 132l-207 -176z" />
    <glyph glyph-name="three" unicode="3" horiz-adv-x="486" 
d="M206 766l234 -113q3 -21 3 -37q0 -67 -37 -117t-98 -82q83 -21 125 -74q42 -52 42 -111q0 -64 -46 -115q-61 -66 -223 -117l-199 172l71 79l222 -190q28 28 41 60q13 33 13 80q0 90 -46 143q-47 54 -125 54q-25 0 -53 -5v40h9q87 0 135 52t48 143q0 37 -11 51
q-10 15 -23 15q-14 0 -34 -17l-8 -7l-136 -108l-66 75z" />
    <glyph glyph-name="four" unicode="4" horiz-adv-x="491" 
d="M464 344l19 -99h-121v-115l30 -16q17 -9 23 -9q8 0 18 9l17 16l14 -19l-119 -111l-119 83l32 47v115h-236l-21 107l278 414q35 -5 59 -39t24 -95v-288h102zM258 344v231q0 33 -7 50t-21 26l-206 -307h234z" />
    <glyph glyph-name="five" unicode="5" horiz-adv-x="473" 
d="M110 756h310l-38 -106h-263l-38 -260l210 157q84 -40 126.5 -106t42.5 -144q0 -100 -60 -184q-59 -83 -201 -113l-189 127l71 86l227 -147q34 31 47 59q21 42 21 88q0 76 -43 137q-42 61 -134 96l-149 -110z" />
    <glyph glyph-name="six" unicode="6" horiz-adv-x="485" 
d="M438 668l-70 -99l-184 96q-38 -60 -54 -116q-22 -79 -22 -153q0 -20 2 -46l226 166q69 -31 103.5 -82.5t34.5 -117.5q0 -80 -42 -145q-59 -93 -186 -171q-118 45 -176 131q-58 87 -58 208q0 91 28 160.5t86 141.5q59 72 125 125zM114 320q19 -87 80.5 -144.5t148.5 -72.5
q49 58 49 132q0 56 -37 105t-113 75z" />
    <glyph glyph-name="seven" unicode="7" horiz-adv-x="478" 
d="M103 756h374v-29q-72 -92 -112 -164q-61 -112 -96 -241q-34 -128 -38 -269l-140 -53q0 61 13 118q23 100 67 201q34 77 93 166q22 33 123 165h-199q-60 0 -93 -23q-32 -22 -59 -79h-25z" />
    <glyph glyph-name="eight" unicode="8" horiz-adv-x="482" 
d="M192 766h39q109 0 162.5 -47.5t53.5 -105.5q0 -39 -24.5 -76.5t-77.5 -79.5q55 -22 83 -56q41 -51 41 -113q0 -66 -41 -128q-42 -62 -178 -160h-17q-103 0 -161 57q-57 57 -57 133q0 51 30 97.5t73 82.5q-41 16 -63 49q-22 34 -22 73q0 54 33.5 116t125.5 158zM131 661
q-15 -20 -23 -42q-8 -21 -8 -44q0 -41 30 -65q20 -16 72 -24q38 -5 113 -21q29 20 45 45q16 26 16 50q0 28 -21.5 53t-69.5 35q-35 8 -154 13zM146 361q-30 -29 -46 -57q-15 -28 -15 -55q0 -47 44 -84q57 -48 158 -48q68 0 102 33q35 33 35 74q0 28 -18 53q-17 25 -67 44
q-35 14 -112 25q-57 9 -81 15z" />
    <glyph glyph-name="nine" unicode="9" horiz-adv-x="487" 
d="M51 96l70 99l185 -95q38 64 53 118q22 81 22 156q0 18 -3 45l-226 -170q-52 28 -70 45q-31 27 -51 69q-20 41 -20 91q0 82 53 156q65 90 173 156q115 -36 176 -125q62 -88 62 -212q0 -93 -31 -172q-24 -61 -80 -129q-55 -67 -127 -128zM373 445q-38 175 -229 218
q-24 -32 -36.5 -64t-12.5 -65q0 -39 17 -77q18 -38 52 -65q26 -21 81 -43z" />
    <glyph glyph-name="Ccedilla" unicode="&#xc7;" horiz-adv-x="527" 
d="M378 777q20 0 41 -7q13 -4 26.5 -13t25.5 -20.5t20 -24.5q6 -10 1 -13.5t-40 -12.5q-36 -9 -45 -7t-25 20q-28 35 -74 36q-33 -2 -71 -14q-41 -20 -78 -99q-36 -78 -36 -188q0 -147 62 -243q66 -102 175 -102q22 0 44 5q40 8 89 48l19 17q2 0 3 -1l2.5 -2.5t2.5 -3.5
q5 -5 5 -11q0 -21 -47 -73q-77 -84 -185 -84h-6t-6 1q29 -45 57 -78.5t54 -54.5q13 -10 15 -13q0 -2 -9 1q-25 7 -74.5 3.5t-91.5 -13.5l-57 -15l-46 43q-46 42 -44 45q1 1 9 -1t18 -7q26 -10 100 -2t74 11q-26 37 -57 88q-79 20 -138 92q-80 99 -80 256q0 158 90 293
q11 15 18 24.5t18.5 23.5t23.5 24t25 17q51 19 83 30q10 3 19 6t17 5t15.5 4t14 3.5t12.5 3t11.5 2t10.5 1t9 0.5z" />
    <glyph glyph-name="ccedilla" unicode="&#xe7;" horiz-adv-x="527" 
d="M378 777q20 0 41 -7q13 -4 26.5 -13t25.5 -20.5t20 -24.5q6 -10 1 -13.5t-40 -12.5q-36 -9 -45 -7t-25 20q-28 35 -74 36q-33 -2 -71 -14q-41 -20 -78 -99q-36 -78 -36 -188q0 -147 62 -243q66 -102 175 -102q22 0 44 5q40 8 89 48l19 17q2 0 3 -1l2.5 -2.5t2.5 -3.5
q5 -5 5 -11q0 -21 -47 -73q-77 -84 -185 -84h-6t-6 1q29 -45 57 -78.5t54 -54.5q13 -10 15 -13q0 -2 -9 1q-25 7 -74.5 3.5t-91.5 -13.5l-57 -15l-46 43q-46 42 -44 45q1 1 9 -1t18 -7q26 -10 100 -2t74 11q-26 37 -57 88q-79 20 -138 92q-80 99 -80 256q0 158 90 293
q11 15 18 24.5t18.5 23.5t23.5 24t25 17q51 19 83 30q10 3 19 6t17 5t15.5 4t14 3.5t12.5 3t11.5 2t10.5 1t9 0.5z" />
    <glyph glyph-name="Ntilde" unicode="&#xd1;" horiz-adv-x="767" 
d="M320 937q6 0 11 -1q23 -4 87 -36q69 -33 70 -33q35 -6 54 37q3 5 8 4l20 -3q4 -1 2 -9q-16 -46 -52 -79q-40 -40 -79 -33q-32 6 -90 38q-46 26 -62 29q-40 7 -63 -43q-3 -5 -7 -4l-22 4q-5 1 4 20q21 51 57 83q32 26 62 26zM589 753q14 -8 43 -12t60.5 -3t51.5 6
q14 4 14 3q0 -2 -24 -18q-34 -23 -53 -59q-17 -33 -25 -73t-11 -109t-3 -203v-241l-41 -17q-6 -3 -13 -6t-12.5 -6t-10.5 -6t-8.5 -5.5t-5.5 -4.5q-11 -14 -20.5 -10t-14.5 24q-11 53 -72.5 188.5t-105.5 206.5q-33 50 -66 94.5t-56.5 67.5t-27.5 16q-9 -13 -15.5 -123.5
t-3.5 -196.5q2 -80 5.5 -108.5t14.5 -49.5q30 -59 90 -41q26 7 27.5 5.5t-15.5 -20.5q-20 -21 -30 -40q-7 -14 -17 -15.5t-56 2.5q-131 13 -162 -3q-16 -9 -16 -6q0 2 9 11.5t21 22.5q47 47 64.5 140t13.5 270l-3 152l22 11q15 8 19 13t-1.5 10.5t-23.5 13.5q-48 23 -81 1
q-7 -5 -13.5 -8t-7.5 -1q-3 3 33 33.5t77.5 61t50.5 32.5q41 10 112 -67t143.5 -206.5t116.5 -261.5l27 -81l6 48q5 47 0 217q-5 143 1.5 189t34.5 74q23 23 23 25q0 1 -4.5 0t-12 -3.5l-16.5 -5.5q-26 -9 -70 -7.5t-72 12.5l-17 6l18 10q5 2 13.5 8.5t18 14t18.5 15.5
l31 28z" />
    <glyph glyph-name="ntilde" unicode="&#xf1;" horiz-adv-x="767" 
d="M320 937q6 0 11 -1q23 -4 87 -36q69 -33 70 -33q35 -6 54 37q3 5 8 4l20 -3q4 -1 2 -9q-16 -46 -52 -79q-40 -40 -79 -33q-32 6 -90 38q-46 26 -62 29q-40 7 -63 -43q-3 -5 -7 -4l-22 4q-5 1 4 20q21 51 57 83q32 26 62 26zM589 753q14 -8 43 -12t60.5 -3t51.5 6
q14 4 14 3q0 -2 -24 -18q-34 -23 -53 -59q-17 -33 -25 -73t-11 -109t-3 -203v-241l-41 -17q-6 -3 -13 -6t-12.5 -6t-10.5 -6t-8.5 -5.5t-5.5 -4.5q-11 -14 -20.5 -10t-14.5 24q-11 53 -72.5 188.5t-105.5 206.5q-33 50 -66 94.5t-56.5 67.5t-27.5 16q-9 -13 -15.5 -123.5
t-3.5 -196.5q2 -80 5.5 -108.5t14.5 -49.5q30 -59 90 -41q26 7 27.5 5.5t-15.5 -20.5q-20 -21 -30 -40q-7 -14 -17 -15.5t-56 2.5q-131 13 -162 -3q-16 -9 -16 -6q0 2 9 11.5t21 22.5q47 47 64.5 140t13.5 270l-3 152l22 11q15 8 19 13t-1.5 10.5t-23.5 13.5q-48 23 -81 1
q-7 -5 -13.5 -8t-7.5 -1q-3 3 33 33.5t77.5 61t50.5 32.5q41 10 112 -67t143.5 -206.5t116.5 -261.5l27 -81l6 48q5 47 0 217q-5 143 1.5 189t34.5 74q23 23 23 25q0 1 -4.5 0t-12 -3.5l-16.5 -5.5q-26 -9 -70 -7.5t-72 12.5l-17 6l18 10q5 2 13.5 8.5t18 14t18.5 15.5
l31 28z" />
    <glyph glyph-name="percent" unicode="%" horiz-adv-x="1676" 
d="M76 20q-46 16 -45 22q0 6 41 16q122 31 192 93q18 19 25 34q2 4 3.5 5t9.5 1q35 2 88 12q116 22 336.5 125.5t404.5 228.5q5 3 7 6t3 5q-1 6 -6.5 14.5t-8.5 8.5q-3 -1 -13 -6t-15 -5.5t-13 2.5q-5 6 -8 11t-4 9.5t-0.5 8t1.5 8.5q9 21 36 17.5t42 -27.5q4 -5 8.5 -10
t8.5 -9t8 -6t7 -2q31 15 100.5 63t142 95t119.5 66q24 11 45 9t37 -17q16 -16 17 -38.5t-15 -32.5q-8 -4 -16 -5.5t-14 0.5t-10 5t-7 7t-7 10t-7 10l-3 4l-40 -24q-32 -18 -108.5 -70t-140.5 -98t-64 -50q0 -7 22 -34q18 -24 21 -18q1 3 1 11q1 13 18.5 14t21.5 -7
q4 -9 4 -19.5t-4.5 -20t-11.5 -12.5q-19 -4 -40 9t-37.5 28t-23.5 16q-26 -16 -81 -54.5t-146 -108.5q-122 -94 -334.5 -187.5t-355.5 -116.5q-70 -12 -111.5 -11t-79.5 15z" />
    <glyph glyph-name="slash" unicode="/" horiz-adv-x="690" 
d="M128 -7l-2 1q-4 2 -3 7q0 6 -15.5 29t-35 45t-27.5 25q-15 7 -12.5 14t20.5 5q10 -1 22.5 3t25.5 12.5t26.5 22t26.5 30.5q41 54 105 179q1 2 2.5 5.5t2.5 5.5q6 12 11 23.5t10 22.5t10 21t8.5 19t7 16.5t6.5 13t4.5 10t2.5 6.5t1 3h-1l22 45q3 5 8 13q58 123 101 159
q4 5 8.5 9.5t9 8t9 7.5t9 7t9 5.5t8.5 5.5q20 10 33.5 14.5t19.5 3.5q2 0 3 -1q4 -2 3 -7q0 -5 9.5 -20t22.5 -31.5t26.5 -31t19.5 -16.5q15 -7 12.5 -14t-20.5 -5q-21 2 -48 -16t-53 -52q-41 -54 -105 -179l-2 -4t-1.5 -3.5t-1.5 -3.5q-25 -55 -43 -94.5t-18 -40.5h1
l-22 -45q-3 -5 -8 -13q-10 -21 -19 -39t-18 -33.5t-17 -28.5t-16 -24t-15.5 -19t-15.5 -15q-13 -14 -26 -24.5t-27 -18.5q-40 -20 -53 -18h-1z" />
    <glyph glyph-name="questiondown" unicode="&#xbf;" horiz-adv-x="428" 
d="M211 691q27 0 45.5 -22t18.5 -53t-18.5 -53t-45.5 -22q-26 0 -45 22t-19 53t19 53t45 22zM362 230q36 -52 36 -109q0 -73 -50 -120q-50 -46 -128 -46q-81 0 -136 52q-54 51 -54 128q0 54 23 94.5t78 84.5l52 41q26 20 46 52.5t19 51.5l-2 32q-1 8 4 14t12 6q12 -1 21 -20
t9 -42q0 -79 -75 -169q-50 -60 -67 -94t-17 -75q0 -49 25 -79q25 -31 65 -31q34 0 59 26q25 25 25 60q0 38 -41 66l5 4l27 18q28 19 64 55z" />
    <glyph glyph-name="question" unicode="?" horiz-adv-x="428" 
d="M211 201q27 0 45.5 -22t18.5 -54q0 -30 -18.5 -52t-45.5 -22q-26 0 -45 22t-19 52q0 32 19 54t45 22zM66 509q-36 51 -36 108q0 74 50 120q50 47 128 47q81 0 135 -52q55 -52 55 -129q0 -53 -23 -94q-23 -40 -78 -83l-52 -42q-26 -20 -46 -52t-19 -52l2 -32q0 -8 -5 -14
q-4 -6 -12 -5q-11 0 -20 18.5t-9 42.5q0 79 75 169q50 59 67 93q17 35 17 75q0 49 -25 80q-25 30 -65 30q-34 0 -59 -25t-25 -60q0 -38 41 -67q-5 -3 -5 -4l-27 -18q-29 -19 -64 -54z" />
    <glyph glyph-name="exclamdown" unicode="&#xa1;" horiz-adv-x="270" 
d="M133 708q26 0 44.5 -22t18.5 -52q0 -32 -18.5 -54t-44.5 -22q-27 0 -46 22t-19 54q0 30 19 52t46 22zM124 481h16v-11q0 -103 28 -209t72 -168q-48 -25 -70 -54t-41 -90q-13 64 -35 96q-20 32 -64 56l5 10q46 85 65 161.5t24 200.5v8z" />
    <glyph glyph-name="exclam" unicode="!" horiz-adv-x="270" 
d="M142 187q27 0 45.5 -22t18.5 -53t-18.5 -53t-45.5 -22q-26 0 -45 22t-19 53t19 53t45 22zM141 774q13 -64 34 -96t65 -57l-5 -9q-47 -86 -65.5 -162.5t-23.5 -199.5v-9h-16v12q0 104 -29 209q-27 106 -71 168q48 25 69 53q23 29 42 91z" />
    <glyph glyph-name="dollar" unicode="$" horiz-adv-x="394" 
d="M364 298q0 -52 -48 -112q-48 -59 -94 -66v-119h-38v116q-12 5 -32 7q-27 2 -34 3q-62 15 -88 78q1 17 18 42q22 29 25 40q2 6 7 6q14 0 21 -28q10 -36 17 -44q15 -14 28 -28q16 -15 33 -14l5 1v181q-13 11 -49 23q-34 11 -47 24q-37 35 -37 88q0 49 47 104q44 53 86 62
v82h38v-86q30 0 68 -25q39 -24 34 -24q3 0 10 2q7 3 9 3q1 0 1 -3t-3 -10q-3 -2 -27 -35q-16 -23 -30 -23l-5 1q-13 14 -26 27q-17 17 -31 19v-154q33 -12 66 -25q36 -14 53 -35q23 -28 23 -78zM184 447v157q-10 7 -22 7q-21 0 -34 -20q-14 -19 -14 -44q0 -34 21.5 -67
t48.5 -33zM303 239q0 92 -81 115v-183q81 0 81 68z" />
    <glyph glyph-name="ampersand" unicode="&#x26;" horiz-adv-x="638" 
d="M608 589q0 -40 -47 -83q-36 -33 -74 -65q1 -4 25 -15q27 -13 41 -33q20 -30 20 -82q0 -69 -75 -153q-55 -60 -129 -108q-52 -33 -119 -33q-88 0 -149 48q-71 55 -71 152q0 80 43 133q17 21 99 85q-16 21 -52 67q-11 12 -11 53l1 22q13 38 52 81t74 60q16 8 54 8
q91 0 130 -73q-2 -40 -39 -72q-12 -10 -25 -13q0 46 -43 79q-39 30 -81 30q-48 0 -48 -70q0 -57 36 -94q18 -17 78 -54q3 -2 3 -7q0 -12 -23 -31q-23 -18 -35 -18q-8 0 -23 7q-13 7 -21 7q-6 0 -13 -5q-56 -40 -56 -142q0 -47 25 -93q27 -47 63 -66q43 -22 107 -22
q71 0 114.5 50.5t43.5 132.5q0 35 -16 69q-20 40 -48 40q-31 0 -50 -29q-18 -29 -18 -66q0 -26 7 -42q2 -5 12 -14q10 -7 10 -14q0 -20 -40 -20q-60 0 -60 59q0 45 45 92q39 34 77 68q41 29 81 59q49 40 49 85q0 29 -14 38q-13 10 -15 16q15 11 28 22q18 12 32 12
q20 0 32.5 -17.5t12.5 -40.5z" />
    <glyph glyph-name="parenleft" unicode="(" horiz-adv-x="266" 
d="M236 -49l-1 -10q-112 43 -164 167q-41 96 -41 224q0 265 182 409l15 4q2 0 3 -3q0 -2 -21 -57q-24 -60 -27 -73q-45 -190 -45 -329q0 -205 99 -332z" />
    <glyph glyph-name="parenright" unicode=")" horiz-adv-x="266" 
d="M236 332q0 -128 -40 -224q-53 -124 -165 -167l-1 10q100 127 100 332q0 139 -46 329q-3 13 -26 72l-22 58q0 4 4 4q9 0 15 -5q181 -134 181 -409z" />
    <glyph glyph-name="less" unicode="&#x3c;" horiz-adv-x="354" 
d="M324 216q-8 -11 -33.5 -23t-45.5 -12q-11 0 -16 4q-38 34 -199 176l199 176q5 4 16 4q20 0 45.5 -12t33.5 -23q-38 -31 -165 -145z" />
    <glyph glyph-name="greater" unicode="&#x3e;" horiz-adv-x="354" 
d="M324 361l-200 -176q-4 -4 -17 -4q-18 0 -43.5 12t-33.5 23q37 31 165 145l-165 145q8 11 33.5 23t45.5 12q11 0 15 -4q38 -33 200 -176z" />
    <glyph glyph-name="hyphen" unicode="-" horiz-adv-x="464" 
d="M434 448q0 -28 -33 -79q-31 -50 -53 -50h-318q0 42 52 129h352z" />
    <glyph glyph-name="plus" unicode="+" horiz-adv-x="470" 
d="M440 436q0 -25 -31 -73q-29 -47 -50 -47h-74v-179q-32 0 -103 58v121h-152q0 38 49 120h103v180q24 0 63.5 -34.5t39.5 -57.5v-88h155z" />
    <glyph glyph-name="asterisk" unicode="*" horiz-adv-x="352" 
d="M312 447q0 -20 -19.5 -36.5t-61.5 -35.5q43 -35 74 -35q2 0 4 0.5t4 0.5t4.5 0.5t3.5 0.5q0 -2 0.5 -6t0.5 -6q0 -20 -14.5 -36t-32.5 -16q-12 0 -28.5 10t-42.5 33q0 -48 23 -60q-6 -14 -20 -23t-30 -9q-44 0 -44 68q0 21 1 28q-42 -26 -42 -48q0 -2 -1.5 -3t-4.5 -1
q-22 0 -38.5 12.5t-16.5 32.5q0 12 8.5 23.5t26.5 23.5t50 28q-12 9 -22.5 15t-19.5 9t-16 3q-4 0 -7 -1l-6 -2q-5 3 -8.5 8.5t-5 12t-1.5 13.5q0 5 1 10t4 9.5t7.5 8t10.5 5.5t14 2t17 -2.5t18.5 -7t20 -11.5t22.5 -16q0 11 -0.5 19.5t-1 16t-1.5 13.5t-2.5 10t-2.5 7
q5 5 12 8t17 3q49 0 49 -64v-3v-4t-0.5 -4t-0.5 -4v-4q27 14 43 26t21 22q13 -1 23.5 -14.5t10.5 -29.5z" />
    <glyph glyph-name="asciicircum" unicode="^" horiz-adv-x="286" 
d="M275 858q2 -4 2 -13q0 -16 -7 -36q-6 -21 -13 -27l-114 132l-114 -132q-7 6 -14 27q-6 20 -6 36q0 9 2 13l132 159z" />
    <glyph glyph-name="dieresis" unicode="&#xa8;" horiz-adv-x="275" 
d="M257 871q0 -9 -20 -28q-15 -14 -25 -20q-2 -2 -5 -2q-13 0 -41 47q-1 2 -1 5q0 12 19 31.5t31 19.5q3 0 6 -2q36 -38 36 -51zM110 871q0 -9 -19 -28q-15 -14 -25 -20q-3 -2 -6 -2q-13 0 -40 47q-1 2 -1 5q0 12 19 31.5t30 19.5q4 0 6 -2q36 -38 36 -51z" />
    <glyph glyph-name="grave" unicode="`" horiz-adv-x="146" 
d="M143 816q-5 -7 -13 -13q-127 76 -127 102q0 15 14 31q15 17 26 17q3 0 5 -1q15 -13 47 -60z" />
    <glyph glyph-name="acute" unicode="&#xb4;" horiz-adv-x="147" 
d="M144 905q0 -26 -127 -102q-7 6 -13 13l48 76q32 47 47 60q3 1 5 1q11 0 26 -17q14 -16 14 -31z" />
    <glyph glyph-name="quotedbl" unicode="&#x22;" horiz-adv-x="274" 
d="M244 721q0 -22 -14 -68q-9 -25 -11 -27q-6 -14 -20 -20q-9 8 -12 25q-4 14 -6 29q-1 3 -13 34q-8 23 -8 37q0 8 4 17q10 11 21 21q14 11 25 11q14 0 24 -21t10 -38zM114 720q0 -27 -13 -64q-14 -43 -31 -50q-10 8 -14 25q-3 14 -5 29q-1 4 -13 35q-8 22 -8 36q0 9 3 17
q11 11 22 21q14 11 25 11q14 0 23 -21q11 -21 11 -39z" />
    <glyph glyph-name="period" unicode="." horiz-adv-x="200" 
d="M132 8q0 -10 -24 -34q-23 -22 -32 -22q-8 0 -27 24t-19 34q0 15 22 35q21 21 33 21q6 0 26.5 -26t20.5 -32z" />
    <glyph glyph-name="colon" unicode=":" horiz-adv-x="162" 
d="M132 299q0 -9 -24 -33q-23 -23 -32 -23q-8 0 -27 24q-19 25 -19 34q0 15 21.5 36t33.5 21q6 0 26.5 -26t20.5 -33zM132 8q0 -10 -24 -34q-23 -22 -32 -22q-8 0 -27 24t-19 34q0 15 22 35q21 21 33 21q6 0 26.5 -26t20.5 -32z" />
    <glyph glyph-name="comma" unicode="," horiz-adv-x="170" 
d="M124 3q0 -39 -30 -75q-15 -17 -58 -52h-4q-2 0 -2 3t1 9q2 4 2 6q17 23 17 59t-16 82q35 29 70 31q20 -31 20 -63z" />
    <glyph glyph-name="semicolon" unicode=";" horiz-adv-x="162" 
d="M132 299q0 -9 -24 -33q-23 -23 -32 -23q-8 0 -27 24q-19 25 -19 34q0 15 21.5 36t33.5 21q6 0 26.5 -26t20.5 -33zM129 -22q0 -23 -9 -39t-33 -45q-27 -31 -36 -31q2 0 -5 3q19 35 19 79q0 40 -18 67q5 16 24 29q20 14 35 14q10 0 17 -33q6 -26 6 -44z" />
    <glyph glyph-name="circumflex" unicode="&#x2c6;" horiz-adv-x="286" 
d="M275 858q2 -4 2 -13q0 -16 -7 -36q-6 -21 -13 -27l-114 132l-114 -132q-7 6 -14 27q-6 20 -6 36q0 9 2 13l132 159z" />
    <glyph glyph-name="A" unicode="A" horiz-adv-x="802" 
d="M296 247q34 16 55 20.5t64 4.5q67 0 67 2t-47 141q-61 181 -75 182q-1 0 -3 -2q-5 -7 -43 -109t-81 -196q-11 -26 -21.5 -49t-17.5 -38.5t-8 -18.5q-2 -3 0 -3q6 0 27 17q32 25 83 49zM637 -4q-31 21 -57.5 61.5t-57.5 114.5q-26 63 -29 66q-1 1 -4 -4l-6 -14
q-3 -8 -6.5 -12t-7.5 -5.5t-8 -0.5q-79 23 -165.5 -3.5t-139.5 -89.5q-35 -41 -35 -44t74.5 -5t99 10.5t27 10t-40.5 -48.5l-42 -47l-58 10q-43 7 -92.5 6t-73.5 -9q-9 -3 -9 -2q2 4 13 15q78 72 147.5 226t114.5 355q5 21 32 30q6 2 11 4t9 4.5t6 4.5t2 4q0 3 -8 13.5
t-20 22.5q-17 17 -26 21t-23 1q-32 -8 -50.5 -34t-6.5 -47q5 -10 0.5 -15.5t-23.5 -16.5q-12 -7 -22.5 -12t-12.5 -5q-5 0 -5 31q0 32 30 59t114 70q39 20 58.5 28.5t33.5 12t22 0.5q37 -8 70 -67.5t74 -191.5q28 -92 68.5 -191t68.5 -144q15 -24 31 -42t32 -27t31 -9
q11 0 16 -3.5t2 -8t-13 -8.5q-13 -4 -50.5 -42.5t-37.5 -47.5q0 -22 -57 16z" />
    <glyph glyph-name="B" unicode="B" horiz-adv-x="651" 
d="M525 76q41 35 17 118q-21 71 -101 134q-23 18 -45 30t-42.5 17.5t-40.5 5t-38 -7.5l-21 -8v-124q0 -125 10 -138q12 -15 72 -28.5t120 -15.5q46 -1 64 12zM91 29q14 38 29 128t20 168q2 29 1 74.5t-3 90.5t-6 81.5t-8 46.5q-1 5 2 8.5t11.5 7.5t24.5 10q84 27 119 57
q12 10 13 9l-3 -11q-13 -35 -27.5 -168t-5.5 -141q6 -7 77 28.5t94 56.5q10 10 15.5 16t9 13.5t4.5 14.5t1 19q-1 52 -48.5 108.5t-103.5 72.5q-42 11 -93.5 -3.5t-88 -45.5t-36.5 -64q0 -12 -2.5 -18t-9 -11.5t-21.5 -13.5q-33 -18 -39 -18q-5 0 -6 15t2.5 34t9.5 29
q9 15 25 28t43.5 27.5t73.5 34.5q76 33 125 48t83 15t62 -15q10 -5 23 -15t26 -22.5t24.5 -26t20.5 -26t13 -21.5q11 -25 10.5 -54t-10.5 -50q-11 -20 -39 -45.5t-60 -43.5q-31 -18 -31 -22t27 -1t70 -18t68 -49q15 -18 27 -37.5t20 -39t11.5 -38.5t0.5 -34
q-6 -49 -58 -111.5t-117 -100.5q-17 -10 -27 -13.5t-30.5 -4.5t-53.5 2q-76 4 -136.5 12t-99.5 -2l-38 -10z" />
    <glyph glyph-name="C" unicode="C" horiz-adv-x="537" 
d="M381 777q20 0 41 -7q20 -7 40 -23t32 -35q4 -6 4 -10q-1 -6 -43 -16q-36 -9 -45 -7t-25 20q-28 35 -74 36q-33 -2 -71 -14q-15 -8 -29.5 -23.5t-25.5 -33.5t-23 -42q-36 -78 -36 -188q0 -147 62 -243q66 -102 175 -102q22 0 44 5q40 8 89 48l19 17q4 0 8 -7q5 -5 5 -11
q0 -21 -47 -73q-77 -84 -185 -84q-121 0 -201.5 99.5t-80.5 256.5q0 158 90 293q11 15 18 24.5t18.5 23.5t23.5 24t25 17q13 4 24 8t21.5 8t20 7.5t17.5 6.5q20 6 36 11t29.5 8t24 4.5t19.5 1.5z" />
    <glyph glyph-name="D" unicode="D" horiz-adv-x="796" 
d="M592 80q36 14 51.5 37.5t18.5 68.5q6 84 -42.5 197t-127.5 203q-30 33 -85.5 72t-67.5 34q-5 -2 -11 -12t-9 -22q-7 -24 -13 -96.5t-9 -160t-1 -148.5q2 -82 5.5 -102t16.5 -34q34 -36 137 -47q86 -9 137 10zM118 -7q42 101 54 291.5t-16 305.5q-2 7 -1 11.5t5.5 7
t13.5 4.5q25 6 72 28.5t64 36.5q13 11 14.5 15t-6.5 10q-10 5 -29.5 5t-46 -6t-48.5 -15q-105 -47 -93 -130q3 -24 -2 -32t-36 -29q-37 -25 -42 -22q-2 2 -5 11q-2 11 -3.5 23.5t-0.5 24.5t3.5 24t6.5 22q8 18 19 31t36.5 31t62.5 38t103 54q38 19 57.5 23.5t64.5 4.5
q33 0 49 -1.5t30 -7t38 -18.5q49 -27 91.5 -65.5t79 -89.5t66.5 -115q66 -158 24 -250q-13 -26 -53 -72t-86.5 -87.5t-73.5 -55.5q-15 -8 -38.5 -12.5t-51.5 -5.5t-60.5 1.5t-66.5 8.5q-73 14 -111.5 14t-63.5 -13q-23 -12 -23 -9q-1 2 3 10z" />
    <glyph glyph-name="E" unicode="E" horiz-adv-x="537" 
d="M381 763q11 0 20.5 -1.5t20.5 -5.5q7 -3 15.5 -7t16.5 -10t15 -12.5t13.5 -13.5t11.5 -15q6 -10 1 -13.5t-40 -12.5q-27 -6 -36.5 -7t-15.5 2.5t-18 17.5q-28 35 -74 36q-33 -2 -71 -14q-41 -20 -78 -99q-36 -78 -36 -188q0 -23 1 -45q70 34 107.5 49t65 19.5t45.5 -2.5
q14 -3 29 -10.5t28 -18t22 -22.5q6 -7 6 -10q-1 -6 -43 -21q-36 -12 -45 -11t-26 18q-60 59 -160 2q-7 -3 -13.5 -7.5t-12.5 -9.5q11 -101 58 -174q66 -102 175 -102q3 0 7 0.5t7.5 0.5t7.5 0.5t7.5 1l7 1t7.5 1.5q40 8 89 48l19 17q4 0 8 -7q3 -3 4 -5.5t1 -5.5
q0 -21 -47 -73q-77 -84 -185 -84q-121 0 -201.5 100t-80.5 256q0 159 90 293q5 7 8.5 11.5t9 12t9.5 13t9.5 12t11 11.5t11.5 10.5t12.5 10t13.5 8.5q51 19 83 30q75 25 109 25z" />
    <glyph glyph-name="F" unicode="F" horiz-adv-x="517" 
d="M388 784q9 0 17.5 -1t17.5 -3q16 -4 32 -11.5t30.5 -18.5t24.5 -23q7 -7 6 -10q-1 -6 -48 -20q-23 -7 -31.5 -9t-18 -1t-14 4.5t-15.5 13.5q-49 45 -126 24l-2 -2t-1.5 -2.5t-1.5 -3.5q-21 -36 -35.5 -128t-19.5 -202q34 14 59 23t44 14.5t34.5 7.5t28 1.5t25.5 -3.5
q24 -5 48.5 -19t39.5 -32q7 -8 7 -11q-1 -5 -48 -20q-29 -9 -39.5 -10.5t-18 1.5t-22.5 16q-60 53 -158 11q-3 -96 3 -175q11 -124 17 -143q2 -7 2 -11q0 -6 -5 -3q-15 8 -83.5 -11t-118.5 -44q-5 -3 15 68q34 119 43 275l-2 1l1 0.5l1 0.5q13 220 -27 342q-4 11 -1 14t15 3
q7 0 19.5 2.5t29.5 7.5t32.5 10t36.5 11q26 11 46.5 19.5t38.5 15t33 11.5t27.5 9t23.5 6.5t20 3.5t18 1z" />
    <glyph glyph-name="G" unicode="G" horiz-adv-x="574" 
d="M372 774q11 0 21 -2t20 -5q20 -7 40 -23t32 -35q7 -11 1.5 -14.5t-40.5 -11.5q-36 -9 -45 -7.5t-24 20.5q-29 34 -75 36q-33 -2 -71 -14q-40 -21 -78 -99q-36 -78 -36 -189q0 -146 62 -242q66 -102 175 -102q22 0 44 4q40 9 89 49l15 13q4 108 -72 135q-13 5 -18 7
t-9.5 9.5t-5.5 15.5t-3 30q-4 37 -2.5 43t14.5 3q7 -1 14.5 -4t15 -6.5t14.5 -8t13.5 -9t12 -10t10.5 -11.5q15 -18 21.5 -38.5t9.5 -58.5t2 -114v-41t-0.5 -41t-1 -40.5t-3.5 -40.5t-7 -42t-10.5 -43.5t-16.5 -45.5q-6 -8 -15.5 -16t-20.5 -14t-22.5 -11t-22.5 -7
q-12 -3 -13.5 3.5t2.5 43.5q5 37 9.5 45t27.5 16q28 10 45 30.5t24 51.5q9 39 10 120q-46 -57 -94.5 -85.5t-122.5 -36.5q-121 0 -201.5 99.5t-80.5 256.5q0 158 91 292q14 21 23.5 34t26.5 30t34 25q51 19 83 30q75 25 109 26z" />
    <glyph glyph-name="H" unicode="H" horiz-adv-x="637" 
d="M225 762q9 0 -3 -26q-18 -38 -30 -139.5t-14 -219.5q2 3 4 5t4 4.5t4 4.5l4 4q13 12 29.5 18.5t35.5 6.5h7q23 0 37 -3q17 -4 36 -11q2 -1 8.5 -3t9 -3t6 -2t5.5 -1q10 -3 25 -3q22 0 64 14q2 177 -24 277q-2 7 -1.5 11t3.5 5t10 1q16 0 66.5 17.5t74.5 31.5t29 11
t-5 -26q-25 -54 -38 -219t-4 -307q4 -51 7.5 -93t5.5 -50q2 -7 2 -11q0 -6 -4 -3q-12 8 -71.5 -11.5t-98.5 -43.5q-4 -3 12 68q30 132 35 304l-2 -2q-24 -24 -64 -33q-3 -1 -5 -1t-4 -0.5t-4.5 -0.5h-4.5q-16 0 -42 9l-4 2l-3 1q-4 2 -7 3t-6.5 2t-6 1.5t-6 1t-5.5 1t-6 1
t-6 0.5q-7 1 -14.5 1.5t-14.5 0.5q-33 0 -74 -15q0 -72 4 -132q8 -124 13 -143q2 -7 2 -11q0 -6 -5 -3q-12 8 -71.5 -11.5t-97.5 -43.5q-4 -3 12 68q21 93 30 212t4.5 229t-22.5 178q-3 11 -1 14t12 3q17 0 67.5 17.5t74.5 31.5q20 11 26 11z" />
    <glyph glyph-name="I" unicode="I" horiz-adv-x="255" 
d="M230 695q-36 -137 -41 -326t25 -288q3 -10 1 -13.5t-13 -3.5q-19 0 -76 -16t-84 -30q-14 -6 -21.5 -8.5t-10.5 -1t-1.5 7.5t7.5 17q28 51 43 219t5 306q-4 48 -8 88.5t-6 47.5q-5 15 0 14q1 0 3 -1q13 -8 80 10.5t111 42.5q4 2 -14 -65z" />
    <glyph glyph-name="J" unicode="J" horiz-adv-x="263" 
d="M243 758q10 0 -3 -26q-28 -54 -42.5 -219t-3.5 -308q1 -16 5 -48t6.5 -55t1.5 -52.5t-8 -52.5q-3 -13 -10 -27.5t-13.5 -27t-17.5 -27.5t-18 -24.5t-19.5 -24.5l-17.5 -21t-17.5 -19.5t-13.5 -15.5q-85 -96 -169 -98q-26 0 -66 16q-49 19 -49 45q0 11 13 43q13 31 20 31
q5 0 13 -19q11 -25 12 -26q33 -43 84 -42q31 1 54 22.5t35.5 58.5t18.5 75.5t8 85.5q1 25 7 154t7 184.5t-3 156t-15 183.5q-3 7 -2.5 11t4 5.5t10.5 1.5q9 0 30.5 5t45 12t47.5 16t37 15q22 12 29 12z" />
    <glyph glyph-name="K" unicode="K" horiz-adv-x="702" 
d="M522 785q35 -25 80.5 -45.5t70.5 -22.5q4 0 6 -1q4 -1 2 -2q-2 -2 -18 -7q-66 -21 -154.5 -87t-184.5 -163q2 -1 4.5 -2t4.5 -2q28 -15 54 -43q43 -37 100 -159q5 -8 8 -13l22 -45l-1 -1l8 -18.5t22.5 -49t30.5 -66.5l3 -6t2 -5q64 -125 105 -179q17 -23 35 -39t35 -23.5
t32 -5.5q17 1 19.5 -5.5t-12.5 -13.5q-13 -5 -45.5 -47.5t-32.5 -51.5q1 -5 -2 -7q-1 -1 -3 -1l-1 -1q-3 0 -8 1t-11.5 3t-15 6t-18.5 9q-27 15 -53 43q-43 36 -101 159q-2 4 -4 7.5t-4 5.5l-22 45h2q0 2 -62 135q-1 2 -2.5 6t-2.5 5q-64 125 -105 179q-26 34 -53 52t-48 16
q-14 -1 -19 3q-2 -94 4 -172q9 -124 14 -143q2 -7 3 -11q0 -6 -5 -3q-14 8 -81 -11.5t-110 -43.5q-5 -3 13 68q36 143 40.5 336t-26.5 297q-3 11 -1 14t13 3q19 0 76 17.5t84 31.5t32.5 11t-6.5 -26t-22 -75.5t-17 -118.5t-9 -136q132 132 160 156q132 110 198 154
q2 3 -64.5 37t-94.5 33q-11 0 -19 0.5t-8.5 2t16 9.5t40.5 18l58 23z" />
    <glyph glyph-name="L" unicode="L" horiz-adv-x="545" 
d="M251 762q10 0 -3 -26q-14 -26 -25 -81.5t-17.5 -124t-8 -146.5t4.5 -148q9 -124 14 -143l3 -10q0 -5 -6 -4q-19 1 -52 -16q15 1 55 7t65 8.5t70.5 4.5t70.5 -3q-2 3 -10 22t-15 34.5t-19.5 36t-25.5 35.5q-21 17 -19.5 20.5t60.5 -16.5l60 -20l14 -57q12 -45 33 -96
t38 -68l6 -7q-1 -2 -19 6q-66 26 -159.5 35t-183.5 2t-163 -26q-3 0 4.5 41t12.5 54q36 143 40 324t-26 285q-3 11 -1 14t13 3q19 0 76 17.5t84 31.5q11 6 18.5 8.5t10.5 2.5z" />
    <glyph glyph-name="M" unicode="M" horiz-adv-x="826" 
d="M212 774q11 0 24 -5.5t27.5 -16t30.5 -25.5t33 -34t34.5 -41.5t34.5 -48t35 -53.5t34 -58q23 31 40 71.5t35.5 95.5t31.5 86q2 14 7.5 20.5t12.5 5t15 -10.5q4 -5 18.5 -13.5t31.5 -15.5l40 -17l1 -240q0 -195 7 -266.5t31 -119.5q9 -17 23 -32.5t30 -26.5q25 -16 25 -18
q-1 -1 -14 3q-21 6 -52 6.5t-60 -3.5t-44 -12l-28 -15l-31 28q-31 29 -50 38l-18 10l17 6q29 11 73 12.5t69 -7.5q5 -2 10.5 -3.5t9.5 -2.5t7 -2t4.5 -1h1.5q0 2 -23 25q-28 29 -34.5 74.5t-1.5 188.5q5 170 0 217l-6 48l-27 -80q-28 -80 -69 -155.5t-94 -134.5q-2 -2 -4 -5
t-3 -4q-54 115 -91 174q-34 52 -68.5 98t-58.5 70t-28 16q-9 -14 -16 -128t-4 -203q2 -83 6 -112.5t15 -50.5q31 -61 93 -43q27 7 28.5 5.5t-15.5 -20.5q-6 -6 -12 -14t-11.5 -15.5t-7.5 -12.5q-4 -8 -6.5 -11t-12 -4.5t-20 -1t-37.5 3.5q-136 13 -167 -4q-18 -9 -18 -5.5
t32 34.5q48 49 66.5 145t14.5 279l-4 158l23 11q16 8 19.5 13.5t-2 11t-23.5 14.5q-50 24 -84 0q-7 -5 -13.5 -7.5t-8.5 -1.5q-3 3 34.5 35t80 63t52.5 34q3 0 5 0.5t4 0.5z" />
    <glyph glyph-name="N" unicode="N" horiz-adv-x="773" 
d="M43 24q47 47 64.5 140t13.5 270l-3 152l22 11q26 13 18 22q-6 6 -24 15q-48 23 -81 1q-7 -5 -13.5 -8t-7.5 -1q-3 3 33 33.5t77.5 61t50.5 32.5q41 10 112 -67t143.5 -206.5t116.5 -261.5l27 -81l6 48q5 47 0 217q-5 143 1.5 189t34.5 74q23 23 23 25q0 1 -1 0.5
t-2.5 -0.5t-4 -0.5t-5 -1.5t-6 -2t-7.5 -2.5t-7 -2.5q-17 -6 -43 -7t-53 2t-46 10l-17 6l18 10q18 10 50 38l31 28l28 -15q22 -12 72.5 -15t82.5 6q14 4 14 3q1 -2 -22 -17l-2 -1q-34 -23 -53 -59q-24 -48 -31.5 -119.5t-7.5 -265.5v-241l-41 -17q-16 -7 -31 -15.5
t-19 -12.5q-11 -14 -20.5 -10t-14.5 24q-11 53 -72.5 188.5t-105.5 206.5q-33 50 -66 94.5t-56.5 67.5t-27.5 16q-9 -13 -15.5 -123.5t-3.5 -196.5q2 -80 5.5 -108.5t14.5 -49.5q10 -19 23.5 -30.5t30 -14t36.5 3.5q26 7 27.5 5.5t-15.5 -20.5q-20 -21 -30 -40
q-7 -14 -17 -15.5t-56 2.5q-131 13 -162 -3q-16 -9 -16 -6t30 34z" />
    <glyph glyph-name="O" unicode="O" horiz-adv-x="640" 
d="M297 774q34 -1 69 -12q101 -33 168 -133q91 -136 91 -292q-1 -43 -10 -88t-29.5 -91t-49.5 -83t-73 -62.5t-96 -30.5q-70 -6 -138.5 34t-122.5 109q-91 116 -91 292q0 157 81 257q38 43 92 71.5t109 28.5zM364 669q-109 0 -175 -102q-62 -97 -62 -243q0 -110 37 -188
l10 -20q10 -7 20 -12t19 -8.5t18 -5.5q23 -4 45 -4q109 0 175 102q62 96 62 242q0 110 -37 188q-5 11 -10 21q-31 19 -57 25q-23 5 -45 5z" />
    <glyph glyph-name="P" unicode="P" horiz-adv-x="761" 
d="M464 774q92 -2 171 -49q92 -57 113 -133q10 -41 -10 -89t-50 -83t-64 -60q-32 -25 -94 -53q-20 -9 -43 -16t-39 -9.5t-40.5 -6.5t-35.5 -6l-6 -2t-7 -2t-5 -1q1 -49 4 -89q4 -51 9 -93t7 -50q2 -6 2 -10q1 -7 -5 -4q-14 9 -86 -10.5t-118 -44.5q-5 -2 14 68
q38 143 43 329t-28 290q-4 11 -1.5 14.5t14.5 3.5q14 0 52 9q32 13 48 20q7 4 11 6q8 5 -3 9q-22 2 -26.5 1.5t-47.5 -6.5q-36 -9 -55.5 -14.5t-43.5 -14.5t-33 -19.5t-6 -22.5q3 -14 -2 -19t-39 -18q-33 -13 -40 -13.5t-10 6.5q-7 13 -5 29.5t11 28.5q8 10 24 19t56 22.5
t76.5 24.5t118.5 35q10 2 17.5 4t14.5 4t12 3t12 2t11.5 2t12.5 1.5t13.5 1l16.5 1.5q9 1 14 2q23 2 45 2zM405 697l-4 -10q-37 -92 -45 -311q2 -40 16 -48q17 -10 41 -10t48.5 9t48.5 29t39 47q35 83 30.5 143.5t-51.5 99.5q-26 20 -55.5 33t-67.5 18z" />
    <glyph glyph-name="Q" unicode="Q" horiz-adv-x="636" 
d="M291 766h3q44 -1 88 -19t82 -50.5t67 -74.5q91 -137 91 -293q-1 -31 -5 -62.5t-13 -65t-24.5 -64.5t-36 -59t-50 -51t-64.5 -37v-1q-26 -11 -75.5 -35t-90.5 -40q30 -14 95 -27q129 -27 197 89q8 3 7 -15q-20 -53 -59 -160q-25 -23 -91 -10q-36 7 -101.5 46t-102.5 47
q-57 12 -110 -28q-9 8 -10 23q14 27 49.5 44t79 31.5t64.5 29.5q-97 30 -178 133q-91 117 -91 293q0 157 81 256q38 43 90.5 71t107.5 29zM361 661q-109 0 -175 -102q-62 -96 -62 -242q0 -111 37 -189l10 -20q31 -20 57 -26q23 -4 45 -4q109 0 175 102q62 96 62 242
q0 111 -37 189l-2 4l-2 4l-2 4l-2 4l-2 4q-31 20 -57 26q-23 4 -45 4z" />
    <glyph glyph-name="R" unicode="R" horiz-adv-x="834" 
d="M462 762q93 -1 171 -49q43 -27 73 -61t40 -72q10 -41 -10 -89t-50 -83t-63 -60q-33 -24 -95 -53l-5 -2q13 -39 41 -93.5t62 -93.5q43 -57 76 -70q33 -14 63 -10q32 6 51 17l9 -43q-132 -92 -221 -54q-70 30 -159 159q-50 75 -92 147q0 -16 0.5 -30.5t1.5 -29.5t2 -29
q9 -124 15 -143q2 -6 2 -10q1 -7 -5 -3q-14 8 -86 -11.5t-118 -44.5q-5 -2 14 68q39 144 43.5 330t-28.5 289q-3 11 -0.5 14.5t13.5 3.5q14 0 52 10l10.5 3.5t10 4t9.5 4t9 3.5t9 4q7 4 11 6q8 5 -3 9q-4 1 -7.5 1.5t-8 0.5h-7t-9 -1t-10 -1.5t-14.5 -2t-18 -2.5
q-36 -9 -55.5 -14.5t-43 -14.5t-33 -19.5t-6.5 -21.5q4 -15 -1.5 -20t-39.5 -18q-29 -11 -36 -13q-10 -2 -14 6q-6 14 -4.5 30t10.5 28q15 19 68.5 38t206.5 63q9 2 16 4t12.5 3.5t12 2.5t10 2t10.5 2t10 1.5t11.5 1.5t11.5 1t14 1t16 2q23 2 45 2zM404 685q-6 -11 -11 -27
t-9.5 -35.5t-8.5 -42.5t-7.5 -48.5t-6 -53t-4.5 -56.5t-3 -58q2 -40 16 -48q13 -8 31.5 -9.5t38.5 3.5t39.5 15t37.5 27.5t30 39.5q70 167 -21 242q-56 43 -122 51z" />
    <glyph glyph-name="S" unicode="S" horiz-adv-x="646" 
d="M314 -15q-151 18 -251 89q-49 35 -50.5 65t44 78.5t58.5 68.5q10 16 11 9l-2 -34q-4 -33 -0.5 -42.5t23.5 -29.5q42 -41 105.5 -69.5t132.5 -38.5q153 -21 153 81q0 21 -6.5 33t-31.5 36q-29 29 -66.5 45t-179.5 61q-76 24 -130.5 55.5t-69.5 60.5q-21 39 3 88.5
t100 127.5q56 57 101.5 78t110.5 21q55 0 102.5 -15t95.5 -47q37 -24 44.5 -44.5t-6.5 -55.5q-14 -33 -28 -71q-10 -29 -13 -30q-2 2 -5 14q-6 29 -34 56.5t-68 48.5t-90 34t-97 13q-83 -1 -117.5 -39.5t5.5 -85.5q41 -50 227 -107q106 -33 154.5 -61t69.5 -69
q23 -45 7.5 -87.5t-86.5 -127.5q-48 -58 -66 -74.5t-46 -27.5q-37 -15 -104 -7z" />
    <glyph glyph-name="T" unicode="T" horiz-adv-x="675" 
d="M663 781q4 0 4.5 -5t-1.5 -19q-4 -27 -3 -150q1 -97 -2 -109q-2 -10 -12 -2q-10 9 -27 55.5t-28 94.5q-2 10 -10.5 24t-17.5 23q-16 17 -26.5 19.5t-48.5 0.5q-12 -1 -25 -3l-3 -6t-5 -8q-29 -49 -45.5 -236t-4.5 -322q10 -116 16 -133q2 -7 2 -10q0 -6 -5 -3
q-10 5 -47.5 -1.5t-83.5 -21t-76 -29.5q-5 -2 14 64q26 86 37.5 214.5t5.5 247.5t-27 182q-4 10 -1.5 13.5t14.5 3.5q16 0 61 10.5t82 23.5q-19 -4 -35 -5.5t-31 -1.5q-19 0 -75 4t-121 5h-23l-3 -54q-3 -55 -20 -108q-7 -24 -25.5 -64.5t-34.5 -70.5t-19 -27t7 41
q10 40 13 100.5t-4 93.5q-7 36 -10 49.5t23 30.5q7 5 18 13.5t22.5 19t20.5 19.5l34 33l58 -9q22 -3 48.5 -5.5t55.5 -3.5t59.5 -1.5t60.5 0t60 2.5t57 4q98 10 116 15q8 2 11 2z" />
    <glyph glyph-name="U" unicode="U" 
d="M37 703q30 1 78 21q60 25 71 25q19 1 17 -26q-6 -36 -9 -132t-7 -134q-6 -47 -8 -67t-3.5 -63t5 -79.5t19.5 -74.5q35 -93 136 -127q5 -2 10 -3t10 -1q59 -2 113 82q50 76 52 145q2 55 -26 158q-7 29 -12 51t-9.5 52.5t-4.5 56.5t4.5 55.5t15.5 55.5q19 4 35 10
t23.5 10.5t5.5 6.5q-2 1 -6 1.5t-9 1.5t-10.5 1.5t-11 1.5t-10.5 1.5t-9.5 1t-6.5 0.5q-52 8 -78.5 -6.5t-43.5 -53.5q-8 -16 -13 -21t-14 -7t-36 -3q-34 -1 -40 0q-8 2 -4 15q6 22 21 43t33 33q30 21 66.5 23.5t173.5 -10.5q31 -3 46 -7l-5 -4q-6 -11 -9.5 -23.5t-5 -26.5
t-1.5 -32q-2 -38 7 -115q9 -76 8 -115q-5 -145 -78 -276q-85 -153 -205 -149q-100 3 -194 92q-100 95 -97 204q1 13 11 75.5t10 110.5q0 22 -1.5 50t-3.5 54t-4 48t-4 39.5t-2 19.5q0 6 8 10q1 0 2 1z" />
    <glyph glyph-name="V" unicode="V" horiz-adv-x="826" 
d="M125 792q12 4 51 -29q29 -24 50.5 -67.5t44.5 -120.5q11 -39 17 -57l12 -49h-1q0 -1 31 -144t44 -176q8 -18 13 -13q3 3 19 33.5t37 70.5q7 15 25 51.5t33 67.5t32 64t27 50q88 148 137 211q0 3 -74 13.5t-99.5 0.5t-27.5 -7t45 44l47 42l57 -17q42 -12 91.5 -16.5
t73.5 1.5q6 1 8 1q6 1 -13 -13q-56 -41 -118.5 -133.5t-120 -212t-102.5 -250.5q-19 -53 5 -106q3 -7 -3 -13.5t-19.5 -12.5t-26.5 -10.5t-30 -9.5t-24 -8q-26 -7 -42 -1q-18 6 -32.5 24t-28.5 51t-26.5 81t-26.5 117q-12 62 -29.5 131t-36 127t-33.5 90q-18 39 -40 62.5
t-44 25.5q-17 2 -18.5 9.5t15.5 10.5q8 2 31.5 19.5t44 36t21.5 24.5q0 6 4 7z" />
    <glyph glyph-name="W" unicode="W" horiz-adv-x="1147" 
d="M131 797q13 0 49 -30q28 -24 50 -67t44 -120q11 -40 18 -57l12 -49h-2q0 -2 31 -145q32 -144 45 -175q7 -18 13 -13q6 6 55 103q8 15 28.5 58t28.5 59q-41 166 -75 241q-5 11 -10.5 21t-11.5 18.5t-12 16t-12.5 13t-13 9.5t-12.5 6.5t-12 3.5q-18 2 -19 9.5t16 10.5
q13 2 54 36.5t42 43.5q1 4 5 6q6 2 18.5 -5t32.5 -24q29 -24 50.5 -67t43.5 -120q2 -7 4 -13t3.5 -11t3 -9.5t2.5 -8.5q27 44 51.5 81.5t48.5 69.5q-51 15 -80 25q-41 14 -40 20q2 7 86 4q135 -5 148 12q5 1 7 1q6 0 -13 -14q-90 -66 -193 -256l2 -7h-1q-1 -2 31 -145
q31 -142 44 -175q7 -18 13 -13q6 6 55 103q5 9 12 23.5l14 29t15.5 32t16.5 34t17 34t16.5 32t14.5 27.5t12 22q28 46 43.5 72t43 67.5t50.5 71.5q0 3 -74 13q-21 3 -36.5 4.5t-27 1.5t-20 -1.5t-16.5 -3.5q-25 -10 -27 -7t45 44l47 41l57 -16q20 -6 44.5 -10.5t46.5 -6.5
t42 -1.5t32 3.5q5 1 7 1q6 0 -13 -14q-55 -41 -118 -133t-120 -211.5t-102 -250.5q-22 -59 5 -106q33 4 54 28t12 46q-3 6 -1.5 10.5t7.5 8.5t20 10q9 4 17 7t13 4.5t7 1.5q4 -1 1 -32q-4 -32 -36.5 -55t-120.5 -57q-59 -22 -81 -27.5t-37 0.5q-24 8 -43 38t-36 86.5
t-35 148.5q-3 13 -6 28q-29 -69 -54 -140q-9 -25 -9 -53.5t15 -52.5q3 -9 -45 -31q-75 -32 -100 -24q-41 11 -63.5 69.5t-50.5 203.5q-19 94 -48 197t-51 151q-18 39 -40.5 62.5t-44.5 25.5q-17 2 -18 9.5t15 10.5q14 2 55 36.5t42 43.5q0 3 1.5 4.5t3.5 1.5q1 1 2 1z" />
    <glyph glyph-name="X" unicode="X" horiz-adv-x="650" 
d="M436 764q41 -14 90.5 -20.5t74.5 -1.5q8 2 9 1q0 -2 -16 -13q-74 -51 -164 -188q-23 -36 -55 -94q5 -12 11.5 -27t13.5 -32t14 -35q1 -3 3 -7q1 -3 2 -4q18 -39 35.5 -73.5t34 -63.5t28.5 -46q17 -24 34 -40.5t34 -24.5t31 -7q11 1 16.5 -2t3 -8t-13.5 -9
q-6 -2 -19.5 -16t-27 -30t-24 -31t-10.5 -19q1 -5 -3 -7q-1 -1 -2 -1h-1q-13 -2 -52 20q-27 16 -52 45q-42 38 -95 163q-4 8 -7 13l-20 46h1l-2.5 6t-6.5 15.5t-9 23.5q-6 -10 -11 -18q-93 -144 -144 -205q-1 -3 73 -16.5t99 -4.5q7 2 13.5 4t10 2.5t4.5 -0.5q2 -3 -47 -43
l-48 -39l-57 18q-41 14 -90 20.5t-74 1.5q-9 -2 -9 -1q-1 2 15 13q101 69 221 281q11 16 23 37q-10 24 -17 42l-3 6t-2 5q-60 128 -98 183q-25 35 -51 54t-48 18q-11 -1 -16.5 2t-3 8t13.5 9q12 5 46.5 46t34.5 50q-1 2 0 4t3 3q1 1 3 1q7 1 20 -4.5t32 -16.5q7 -3 13.5 -8
t13 -10.5t13 -12t12.5 -14.5q22 -19 44.5 -58.5t50.5 -103.5l7 -14l16 -34q4 7 8 13.5t9 13.5t9 13q60 91 104 144q0 3 -73.5 16t-99 4t-27.5 -6t46 43l49 39z" />
    <glyph glyph-name="Y" unicode="Y" horiz-adv-x="588" 
d="M407 766q42 -10 91.5 -12.5t74.5 4.5q5 1 7 2q6 0 -13 -15q-48 -57 -92 -126t-68 -114.5t-62 -125t-53 -109.5q-82 -151 -128 -216q0 -3 74.5 -10.5t99.5 3.5q7 3 13 5t10 3t4 0q2 -2 -43 -46l-45 -43l-58 14q-42 10 -91.5 12.5t-73.5 -4.5q-5 -2 -7 -2q-6 0 12 14
q32 26 66 71t67 102t64 126q10 16 20 38q-12 23 -21 41q-1 2 -3 5.5t-2 4.5q-32 56 -62 103t-51 71q-18 22 -36.5 37.5t-36 22t-31.5 4.5q-17 -2 -20 4.5t12 14.5q12 6 43 49.5t30 52.5q-1 5 3 7q1 1 3 2q6 1 19.5 -3t33.5 -14q29 -13 56 -40q44 -35 107 -155q5 -8 9 -12
l18 -34l5.5 11t5.5 10.5l6 11t6 10.5q53 95 92 151q0 3 -74.5 10t-99.5 -4q-5 -2 -9.5 -3.5t-8.5 -2.5t-6.5 -1.5l-2.5 -0.5q-2 3 43 46l45 44z" />
    <glyph glyph-name="Z" unicode="Z" horiz-adv-x="571" 
d="M59 824q4 -1 9 -15q13 -43 66 -56q9 -3 22.5 -4.5t29.5 -2t33.5 -0.5t35.5 1h3q3 1 4 1q16 1 72 10t95.5 8.5t65.5 -16.5q22 -9 38 -26q23 -25 27 -37v-4q0 -2 -0.5 -3.5t-2.5 -2.5q-4 -3 -14 -52.5t-9 -62.5q2 -17 -2 -18t-9 15q-4 15 -15.5 27.5t-28.5 20.5
q-183 -246 -308 -432q31 -6 86 -28t70 -26q2 -1 4 -1.5t3 -1.5q79 -22 119 -21q55 2 77 41q5 9 9 11.5t4.5 -2t-2.5 -15.5q-5 -12 -6 -62.5t3 -54.5q1 -1 1.5 -3t-0.5 -4q0 -1 -1 -3q-3 -5 -11.5 -13t-22.5 -17q-19 -14 -43 -18q-24 -5 -42.5 -4.5t-46.5 8.5t-48.5 16
t-47 18.5t-42.5 15.5q-52 18 -126 23q-52 3 -77 -40q-5 -10 -9 -12.5t-4 2.5t3 15q2 7 4 29q6 80 -1 88l-1 7v2l1 1q6 12 33 31q20 13 44 17q3 1 7 2q157 239 308 445q-35 2 -80 0h-3q-3 -1 -4 -1q-19 -1 -53.5 -6.5t-59.5 -8t-55.5 -2.5t-56.5 10.5t-46 30.5q-23 25 -27 37
v2v2q0 4 3 6q1 1 3.5 8.5t5 19t5.5 25t5 25.5t3 22.5t1 14.5q-2 18 2 18z" />
    <glyph glyph-name="a" unicode="a" horiz-adv-x="802" 
d="M296 247q34 16 55 20.5t64 4.5q67 0 67 2t-47 141q-61 181 -75 182q-1 0 -3 -2q-5 -7 -43 -109t-81 -196q-11 -26 -21.5 -49t-17.5 -38.5t-8 -18.5q-2 -3 0 -3q6 0 27 17q32 25 83 49zM637 -4q-31 21 -57.5 61.5t-57.5 114.5q-26 63 -29 66q-1 1 -4 -4l-6 -14
q-3 -8 -6.5 -12t-7.5 -5.5t-8 -0.5q-79 23 -165.5 -3.5t-139.5 -89.5q-35 -41 -35 -44t74.5 -5t99 10.5t27 10t-40.5 -48.5l-42 -47l-58 10q-43 7 -92.5 6t-73.5 -9q-9 -3 -9 -2q2 4 13 15q78 72 147.5 226t114.5 355q5 21 32 30q6 2 11 4t9 4.5t6 4.5t2 4q0 3 -8 13.5
t-20 22.5q-17 17 -26 21t-23 1q-32 -8 -50.5 -34t-6.5 -47q5 -10 0.5 -15.5t-23.5 -16.5q-12 -7 -22.5 -12t-12.5 -5q-5 0 -5 31q0 32 30 59t114 70q39 20 58.5 28.5t33.5 12t22 0.5q37 -8 70 -67.5t74 -191.5q28 -92 68.5 -191t68.5 -144q15 -24 31 -42t32 -27t31 -9
q11 0 16 -3.5t2 -8t-13 -8.5q-13 -4 -50.5 -42.5t-37.5 -47.5q0 -22 -57 16z" />
    <glyph glyph-name="aacute" unicode="&#xe1;" horiz-adv-x="827" 
d="M296 247q34 16 55 20.5t64 4.5q67 0 67 2t-47 141q-61 181 -75 182q-1 0 -3 -2q-5 -7 -43 -109t-81 -196q-11 -26 -21.5 -49t-17.5 -38.5t-8 -18.5q-2 -3 0 -3q6 0 27 17q32 25 83 49zM637 -4q-31 21 -57.5 61.5t-57.5 114.5q-26 63 -29 66q-1 1 -4 -4l-6 -14
q-3 -8 -6.5 -12t-7.5 -5.5t-8 -0.5q-79 23 -165.5 -3.5t-139.5 -89.5q-35 -41 -35 -44t74.5 -5t99 10.5t27 10t-40.5 -48.5l-42 -47l-58 10q-43 7 -92.5 6t-73.5 -9q-9 -3 -9 -2q2 4 13 15q78 72 147.5 226t114.5 355q5 21 32 30q6 2 11 4t9 4.5t6 4.5t2 4q0 3 -8 13.5
t-20 22.5q-17 17 -26 21t-23 1q-32 -8 -50.5 -34t-6.5 -47q5 -10 0.5 -15.5t-23.5 -16.5q-12 -7 -22.5 -12t-12.5 -5q-5 0 -5 31q0 32 30 59t114 70q39 20 58.5 28.5t33.5 12t22 0.5q37 -8 70 -67.5t74 -191.5q28 -92 68.5 -191t68.5 -144q15 -24 31 -42t32 -27t31 -9
q11 0 16 -3.5t2 -8t-13 -8.5q-13 -4 -50.5 -42.5t-37.5 -47.5q0 -22 -57 16zM532 930q0 -26 -127 -102q-7 6 -13 13l48 76q32 47 47 60q3 1 5 1q11 0 26 -17q14 -16 14 -31z" />
    <glyph glyph-name="eacute" unicode="&#xe9;" horiz-adv-x="549" 
d="M381 763q11 0 20.5 -1.5t20.5 -5.5q7 -3 15.5 -7t16.5 -10t15 -12.5t13.5 -13.5t11.5 -15q6 -10 1 -13.5t-40 -12.5q-27 -6 -36.5 -7t-15.5 2.5t-18 17.5q-28 35 -74 36q-33 -2 -71 -14q-41 -20 -78 -99q-36 -78 -36 -188q0 -23 1 -45q70 34 107.5 49t65 19.5t45.5 -2.5
q14 -3 29 -10.5t28 -18t22 -22.5q6 -7 6 -10q-1 -6 -43 -21q-36 -12 -45 -11t-26 18q-60 59 -160 2q-7 -3 -13.5 -7.5t-12.5 -9.5q11 -101 58 -174q66 -102 175 -102q3 0 7 0.5t7.5 0.5t7.5 0.5t7.5 1l7 1t7.5 1.5q40 8 89 48l19 17q4 0 8 -7q3 -3 4 -5.5t1 -5.5
q0 -21 -47 -73q-77 -84 -185 -84q-121 0 -201.5 100t-80.5 256q0 159 90 293q5 7 8.5 11.5t9 12t9.5 13t9.5 12t11 11.5t11.5 10.5t12.5 10t13.5 8.5q51 19 83 30q75 25 109 25zM376 937q0 -26 -127 -102q-7 6 -13 13l48 76q32 47 47 60q3 1 5 1q11 0 26 -17q14 -16 14 -31z
" />
    <glyph glyph-name="iacute" unicode="&#xed;" horiz-adv-x="276" 
d="M230 695q-36 -137 -41 -326t25 -288q3 -10 1 -13.5t-13 -3.5q-19 0 -76 -16t-84 -30q-14 -6 -21.5 -8.5t-10.5 -1t-1.5 7.5t7.5 17q28 51 43 219t5 306q-4 48 -8 88.5t-6 47.5q-5 15 0 14q1 0 3 -1q13 -8 80 10.5t111 42.5q4 2 -14 -65zM268 938q0 -26 -127 -102
q-7 6 -13 13l48 76q32 47 47 60q3 1 5 1q11 0 26 -17q14 -16 14 -31z" />
    <glyph glyph-name="oacute" unicode="&#xf3;" horiz-adv-x="645" 
d="M297 774q34 -1 69 -12q101 -33 168 -133q91 -136 91 -292q-1 -43 -10 -88t-29.5 -91t-49.5 -83t-73 -62.5t-96 -30.5q-70 -6 -138.5 34t-122.5 109q-91 116 -91 292q0 157 81 257q38 43 92 71.5t109 28.5zM364 669q-109 0 -175 -102q-62 -97 -62 -243q0 -110 37 -188
l10 -20q10 -7 20 -12t19 -8.5t18 -5.5q23 -4 45 -4q109 0 175 102q62 96 62 242q0 110 -37 188q-5 11 -10 21q-31 19 -57 25q-23 5 -45 5zM445 931q0 -26 -127 -102q-7 6 -13 13l48 76q32 47 47 60q3 1 5 1q11 0 26 -17q14 -16 14 -31z" />
    <glyph glyph-name="uacute" unicode="&#xfa;" 
d="M37 703q30 1 78 21q60 25 71 25q19 1 17 -26q-6 -36 -9 -132t-7 -134q-6 -47 -8 -67t-3.5 -63t5 -79.5t19.5 -74.5q35 -93 136 -127q5 -2 10 -3t10 -1q59 -2 113 82q50 76 52 145q2 55 -26 158q-7 29 -12 51t-9.5 52.5t-4.5 56.5t4.5 55.5t15.5 55.5q19 4 35 10
t23.5 10.5t5.5 6.5q-2 1 -6 1.5t-9 1.5t-10.5 1.5t-11 1.5t-10.5 1.5t-9.5 1t-6.5 0.5q-52 8 -78.5 -6.5t-43.5 -53.5q-8 -16 -13 -21t-14 -7t-36 -3q-34 -1 -40 0q-8 2 -4 15q6 22 21 43t33 33q30 21 66.5 23.5t173.5 -10.5q31 -3 46 -7l-5 -4q-6 -11 -9.5 -23.5t-5 -26.5
t-1.5 -32q-2 -38 7 -115q9 -76 8 -115q-5 -145 -78 -276q-85 -153 -205 -149q-100 3 -194 92q-100 95 -97 204q1 13 11 75.5t10 110.5q0 22 -1.5 50t-3.5 54t-4 48t-4 39.5t-2 19.5q0 6 8 10q1 0 2 1zM482 931q0 -26 -127 -102q-7 6 -13 13l48 76q32 47 47 60q3 1 5 1
q11 0 26 -17q14 -16 14 -31z" />
    <glyph glyph-name="Aacute" unicode="&#xc1;" horiz-adv-x="827" 
d="M296 247q34 16 55 20.5t64 4.5q67 0 67 2t-47 141q-61 181 -75 182q-1 0 -3 -2q-5 -7 -43 -109t-81 -196q-11 -26 -21.5 -49t-17.5 -38.5t-8 -18.5q-2 -3 0 -3q6 0 27 17q32 25 83 49zM637 -4q-31 21 -57.5 61.5t-57.5 114.5q-26 63 -29 66q-1 1 -4 -4l-6 -14
q-3 -8 -6.5 -12t-7.5 -5.5t-8 -0.5q-79 23 -165.5 -3.5t-139.5 -89.5q-35 -41 -35 -44t74.5 -5t99 10.5t27 10t-40.5 -48.5l-42 -47l-58 10q-43 7 -92.5 6t-73.5 -9q-9 -3 -9 -2q2 4 13 15q78 72 147.5 226t114.5 355q5 21 32 30q6 2 11 4t9 4.5t6 4.5t2 4q0 3 -8 13.5
t-20 22.5q-17 17 -26 21t-23 1q-32 -8 -50.5 -34t-6.5 -47q5 -10 0.5 -15.5t-23.5 -16.5q-12 -7 -22.5 -12t-12.5 -5q-5 0 -5 31q0 32 30 59t114 70q39 20 58.5 28.5t33.5 12t22 0.5q37 -8 70 -67.5t74 -191.5q28 -92 68.5 -191t68.5 -144q15 -24 31 -42t32 -27t31 -9
q11 0 16 -3.5t2 -8t-13 -8.5q-13 -4 -50.5 -42.5t-37.5 -47.5q0 -22 -57 16zM532 930q0 -26 -127 -102q-7 6 -13 13l48 76q32 47 47 60q3 1 5 1q11 0 26 -17q14 -16 14 -31z" />
    <glyph glyph-name="Eacute" unicode="&#xc9;" horiz-adv-x="549" 
d="M381 763q11 0 20.5 -1.5t20.5 -5.5q7 -3 15.5 -7t16.5 -10t15 -12.5t13.5 -13.5t11.5 -15q6 -10 1 -13.5t-40 -12.5q-27 -6 -36.5 -7t-15.5 2.5t-18 17.5q-28 35 -74 36q-33 -2 -71 -14q-41 -20 -78 -99q-36 -78 -36 -188q0 -23 1 -45q70 34 107.5 49t65 19.5t45.5 -2.5
q14 -3 29 -10.5t28 -18t22 -22.5q6 -7 6 -10q-1 -6 -43 -21q-36 -12 -45 -11t-26 18q-60 59 -160 2q-7 -3 -13.5 -7.5t-12.5 -9.5q11 -101 58 -174q66 -102 175 -102q3 0 7 0.5t7.5 0.5t7.5 0.5t7.5 1l7 1t7.5 1.5q40 8 89 48l19 17q4 0 8 -7q3 -3 4 -5.5t1 -5.5
q0 -21 -47 -73q-77 -84 -185 -84q-121 0 -201.5 100t-80.5 256q0 159 90 293q5 7 8.5 11.5t9 12t9.5 13t9.5 12t11 11.5t11.5 10.5t12.5 10t13.5 8.5q51 19 83 30q75 25 109 25zM376 937q0 -26 -127 -102q-7 6 -13 13l48 76q32 47 47 60q3 1 5 1q11 0 26 -17q14 -16 14 -31z
" />
    <glyph glyph-name="Iacute" unicode="&#xcd;" horiz-adv-x="276" 
d="M230 695q-36 -137 -41 -326t25 -288q3 -10 1 -13.5t-13 -3.5q-19 0 -76 -16t-84 -30q-14 -6 -21.5 -8.5t-10.5 -1t-1.5 7.5t7.5 17q28 51 43 219t5 306q-4 48 -8 88.5t-6 47.5q-5 15 0 14q1 0 3 -1q13 -8 80 10.5t111 42.5q4 2 -14 -65zM268 938q0 -26 -127 -102
q-7 6 -13 13l48 76q32 47 47 60q3 1 5 1q11 0 26 -17q14 -16 14 -31z" />
    <glyph glyph-name="Oacute" unicode="&#xd3;" horiz-adv-x="645" 
d="M297 774q34 -1 69 -12q101 -33 168 -133q91 -136 91 -292q-1 -43 -10 -88t-29.5 -91t-49.5 -83t-73 -62.5t-96 -30.5q-70 -6 -138.5 34t-122.5 109q-91 116 -91 292q0 157 81 257q38 43 92 71.5t109 28.5zM364 669q-109 0 -175 -102q-62 -97 -62 -243q0 -110 37 -188
l10 -20q10 -7 20 -12t19 -8.5t18 -5.5q23 -4 45 -4q109 0 175 102q62 96 62 242q0 110 -37 188q-5 11 -10 21q-31 19 -57 25q-23 5 -45 5zM445 931q0 -26 -127 -102q-7 6 -13 13l48 76q32 47 47 60q3 1 5 1q11 0 26 -17q14 -16 14 -31z" />
    <glyph glyph-name="Uacute" unicode="&#xda;" 
d="M37 703q30 1 78 21q60 25 71 25q19 1 17 -26q-6 -36 -9 -132t-7 -134q-6 -47 -8 -67t-3.5 -63t5 -79.5t19.5 -74.5q35 -93 136 -127q5 -2 10 -3t10 -1q59 -2 113 82q50 76 52 145q2 55 -26 158q-7 29 -12 51t-9.5 52.5t-4.5 56.5t4.5 55.5t15.5 55.5q19 4 35 10
t23.5 10.5t5.5 6.5q-2 1 -6 1.5t-9 1.5t-10.5 1.5t-11 1.5t-10.5 1.5t-9.5 1t-6.5 0.5q-52 8 -78.5 -6.5t-43.5 -53.5q-8 -16 -13 -21t-14 -7t-36 -3q-34 -1 -40 0q-8 2 -4 15q6 22 21 43t33 33q30 21 66.5 23.5t173.5 -10.5q31 -3 46 -7l-5 -4q-6 -11 -9.5 -23.5t-5 -26.5
t-1.5 -32q-2 -38 7 -115q9 -76 8 -115q-5 -145 -78 -276q-85 -153 -205 -149q-100 3 -194 92q-100 95 -97 204q1 13 11 75.5t10 110.5q0 22 -1.5 50t-3.5 54t-4 48t-4 39.5t-2 19.5q0 6 8 10q1 0 2 1zM482 931q0 -26 -127 -102q-7 6 -13 13l48 76q32 47 47 60q3 1 5 1
q11 0 26 -17q14 -16 14 -31z" />
    <glyph glyph-name="agrave" unicode="&#xe0;" horiz-adv-x="827" 
d="M296 247q34 16 55 20.5t64 4.5q67 0 67 2t-47 141q-61 181 -75 182q-1 0 -3 -2q-5 -7 -43 -109t-81 -196q-11 -26 -21.5 -49t-17.5 -38.5t-8 -18.5q-2 -3 0 -3q6 0 27 17q32 25 83 49zM637 -4q-31 21 -57.5 61.5t-57.5 114.5q-26 63 -29 66q-1 1 -4 -4l-6 -14
q-3 -8 -6.5 -12t-7.5 -5.5t-8 -0.5q-79 23 -165.5 -3.5t-139.5 -89.5q-35 -41 -35 -44t74.5 -5t99 10.5t27 10t-40.5 -48.5l-42 -47l-58 10q-43 7 -92.5 6t-73.5 -9q-9 -3 -9 -2q2 4 13 15q78 72 147.5 226t114.5 355q5 21 32 30q6 2 11 4t9 4.5t6 4.5t2 4q0 3 -8 13.5
t-20 22.5q-17 17 -26 21t-23 1q-32 -8 -50.5 -34t-6.5 -47q5 -10 0.5 -15.5t-23.5 -16.5q-12 -7 -22.5 -12t-12.5 -5q-5 0 -5 31q0 32 30 59t114 70q39 20 58.5 28.5t33.5 12t22 0.5q37 -8 70 -67.5t74 -191.5q28 -92 68.5 -191t68.5 -144q15 -24 31 -42t32 -27t31 -9
q11 0 16 -3.5t2 -8t-13 -8.5q-13 -4 -50.5 -42.5t-37.5 -47.5q0 -22 -57 16zM331 840q-5 -7 -13 -13q-127 76 -127 102q0 15 14 31q15 17 26 17q3 0 5 -1q15 -13 47 -60z" />
    <glyph glyph-name="egrave" unicode="&#xe8;" horiz-adv-x="549" 
d="M381 763q11 0 20.5 -1.5t20.5 -5.5q7 -3 15.5 -7t16.5 -10t15 -12.5t13.5 -13.5t11.5 -15q6 -10 1 -13.5t-40 -12.5q-27 -6 -36.5 -7t-15.5 2.5t-18 17.5q-28 35 -74 36q-33 -2 -71 -14q-41 -20 -78 -99q-36 -78 -36 -188q0 -23 1 -45q70 34 107.5 49t65 19.5t45.5 -2.5
q14 -3 29 -10.5t28 -18t22 -22.5q6 -7 6 -10q-1 -6 -43 -21q-36 -12 -45 -11t-26 18q-60 59 -160 2q-7 -3 -13.5 -7.5t-12.5 -9.5q11 -101 58 -174q66 -102 175 -102q3 0 7 0.5t7.5 0.5t7.5 0.5t7.5 1l7 1t7.5 1.5q40 8 89 48l19 17q4 0 8 -7q3 -3 4 -5.5t1 -5.5
q0 -21 -47 -73q-77 -84 -185 -84q-121 0 -201.5 100t-80.5 256q0 159 90 293q5 7 8.5 11.5t9 12t9.5 13t9.5 12t11 11.5t11.5 10.5t12.5 10t13.5 8.5q51 19 83 30q75 25 109 25zM274 843q-5 -7 -13 -13q-127 76 -127 102q0 15 14 31q15 17 26 17q3 0 5 -1q15 -13 47 -60z
" />
    <glyph glyph-name="igrave" unicode="&#xec;" horiz-adv-x="276" 
d="M230 695q-36 -137 -41 -326t25 -288q3 -10 1 -13.5t-13 -3.5q-19 0 -76 -16t-84 -30q-14 -6 -21.5 -8.5t-10.5 -1t-1.5 7.5t7.5 17q28 51 43 219t5 306q-4 48 -8 88.5t-6 47.5q-5 15 0 14q1 0 3 -1q13 -8 80 10.5t111 42.5q4 2 -14 -65zM145 832q-5 -7 -13 -13
q-127 76 -127 102q0 15 14 31q15 17 26 17q3 0 5 -1q15 -13 47 -60z" />
    <glyph glyph-name="ograve" unicode="&#xf2;" horiz-adv-x="645" 
d="M297 774q34 -1 69 -12q101 -33 168 -133q91 -136 91 -292q-1 -43 -10 -88t-29.5 -91t-49.5 -83t-73 -62.5t-96 -30.5q-70 -6 -138.5 34t-122.5 109q-91 116 -91 292q0 157 81 257q38 43 92 71.5t109 28.5zM364 669q-109 0 -175 -102q-62 -97 -62 -243q0 -110 37 -188
l10 -20q10 -7 20 -12t19 -8.5t18 -5.5q23 -4 45 -4q109 0 175 102q62 96 62 242q0 110 -37 188q-5 11 -10 21q-31 19 -57 25q-23 5 -45 5zM296 828q-5 -7 -13 -13q-127 76 -127 102q0 15 14 31q15 17 26 17q3 0 5 -1q15 -13 47 -60z" />
    <glyph glyph-name="ugrave" unicode="&#xf9;" 
d="M37 703q30 1 78 21q60 25 71 25q19 1 17 -26q-6 -36 -9 -132t-7 -134q-6 -47 -8 -67t-3.5 -63t5 -79.5t19.5 -74.5q35 -93 136 -127q5 -2 10 -3t10 -1q59 -2 113 82q50 76 52 145q2 55 -26 158q-7 29 -12 51t-9.5 52.5t-4.5 56.5t4.5 55.5t15.5 55.5q19 4 35 10
t23.5 10.5t5.5 6.5q-2 1 -6 1.5t-9 1.5t-10.5 1.5t-11 1.5t-10.5 1.5t-9.5 1t-6.5 0.5q-52 8 -78.5 -6.5t-43.5 -53.5q-8 -16 -13 -21t-14 -7t-36 -3q-34 -1 -40 0q-8 2 -4 15q6 22 21 43t33 33q30 21 66.5 23.5t173.5 -10.5q31 -3 46 -7l-5 -4q-6 -11 -9.5 -23.5t-5 -26.5
t-1.5 -32q-2 -38 7 -115q9 -76 8 -115q-5 -145 -78 -276q-85 -153 -205 -149q-100 3 -194 92q-100 95 -97 204q1 13 11 75.5t10 110.5q0 22 -1.5 50t-3.5 54t-4 48t-4 39.5t-2 19.5q0 6 8 10q1 0 2 1zM312 843q-5 -7 -13 -13q-127 76 -127 102q0 15 14 31q15 17 26 17
q3 0 5 -1q15 -13 47 -60z" />
    <glyph glyph-name="Agrave" unicode="&#xc0;" horiz-adv-x="827" 
d="M296 247q34 16 55 20.5t64 4.5q67 0 67 2t-47 141q-61 181 -75 182q-1 0 -3 -2q-5 -7 -43 -109t-81 -196q-11 -26 -21.5 -49t-17.5 -38.5t-8 -18.5q-2 -3 0 -3q6 0 27 17q32 25 83 49zM637 -4q-31 21 -57.5 61.5t-57.5 114.5q-26 63 -29 66q-1 1 -4 -4l-6 -14
q-3 -8 -6.5 -12t-7.5 -5.5t-8 -0.5q-79 23 -165.5 -3.5t-139.5 -89.5q-35 -41 -35 -44t74.5 -5t99 10.5t27 10t-40.5 -48.5l-42 -47l-58 10q-43 7 -92.5 6t-73.5 -9q-9 -3 -9 -2q2 4 13 15q78 72 147.5 226t114.5 355q5 21 32 30q6 2 11 4t9 4.5t6 4.5t2 4q0 3 -8 13.5
t-20 22.5q-17 17 -26 21t-23 1q-32 -8 -50.5 -34t-6.5 -47q5 -10 0.5 -15.5t-23.5 -16.5q-12 -7 -22.5 -12t-12.5 -5q-5 0 -5 31q0 32 30 59t114 70q39 20 58.5 28.5t33.5 12t22 0.5q37 -8 70 -67.5t74 -191.5q28 -92 68.5 -191t68.5 -144q15 -24 31 -42t32 -27t31 -9
q11 0 16 -3.5t2 -8t-13 -8.5q-13 -4 -50.5 -42.5t-37.5 -47.5q0 -22 -57 16zM331 840q-5 -7 -13 -13q-127 76 -127 102q0 15 14 31q15 17 26 17q3 0 5 -1q15 -13 47 -60z" />
    <glyph glyph-name="Egrave" unicode="&#xc8;" horiz-adv-x="549" 
d="M381 763q11 0 20.5 -1.5t20.5 -5.5q7 -3 15.5 -7t16.5 -10t15 -12.5t13.5 -13.5t11.5 -15q6 -10 1 -13.5t-40 -12.5q-27 -6 -36.5 -7t-15.5 2.5t-18 17.5q-28 35 -74 36q-33 -2 -71 -14q-41 -20 -78 -99q-36 -78 -36 -188q0 -23 1 -45q70 34 107.5 49t65 19.5t45.5 -2.5
q14 -3 29 -10.5t28 -18t22 -22.5q6 -7 6 -10q-1 -6 -43 -21q-36 -12 -45 -11t-26 18q-60 59 -160 2q-7 -3 -13.5 -7.5t-12.5 -9.5q11 -101 58 -174q66 -102 175 -102q3 0 7 0.5t7.5 0.5t7.5 0.5t7.5 1l7 1t7.5 1.5q40 8 89 48l19 17q4 0 8 -7q3 -3 4 -5.5t1 -5.5
q0 -21 -47 -73q-77 -84 -185 -84q-121 0 -201.5 100t-80.5 256q0 159 90 293q5 7 8.5 11.5t9 12t9.5 13t9.5 12t11 11.5t11.5 10.5t12.5 10t13.5 8.5q51 19 83 30q75 25 109 25zM274 843q-5 -7 -13 -13q-127 76 -127 102q0 15 14 31q15 17 26 17q3 0 5 -1q15 -13 47 -60z
" />
    <glyph glyph-name="Igrave" unicode="&#xcc;" horiz-adv-x="276" 
d="M230 695q-36 -137 -41 -326t25 -288q3 -10 1 -13.5t-13 -3.5q-19 0 -76 -16t-84 -30q-14 -6 -21.5 -8.5t-10.5 -1t-1.5 7.5t7.5 17q28 51 43 219t5 306q-4 48 -8 88.5t-6 47.5q-5 15 0 14q1 0 3 -1q13 -8 80 10.5t111 42.5q4 2 -14 -65zM145 832q-5 -7 -13 -13
q-127 76 -127 102q0 15 14 31q15 17 26 17q3 0 5 -1q15 -13 47 -60z" />
    <glyph glyph-name="Ograve" unicode="&#xd2;" horiz-adv-x="645" 
d="M297 774q34 -1 69 -12q101 -33 168 -133q91 -136 91 -292q-1 -43 -10 -88t-29.5 -91t-49.5 -83t-73 -62.5t-96 -30.5q-70 -6 -138.5 34t-122.5 109q-91 116 -91 292q0 157 81 257q38 43 92 71.5t109 28.5zM364 669q-109 0 -175 -102q-62 -97 -62 -243q0 -110 37 -188
l10 -20q10 -7 20 -12t19 -8.5t18 -5.5q23 -4 45 -4q109 0 175 102q62 96 62 242q0 110 -37 188q-5 11 -10 21q-31 19 -57 25q-23 5 -45 5zM296 828q-5 -7 -13 -13q-127 76 -127 102q0 15 14 31q15 17 26 17q3 0 5 -1q15 -13 47 -60z" />
    <glyph glyph-name="Ugrave" unicode="&#xd9;" 
d="M37 703q30 1 78 21q60 25 71 25q19 1 17 -26q-6 -36 -9 -132t-7 -134q-6 -47 -8 -67t-3.5 -63t5 -79.5t19.5 -74.5q35 -93 136 -127q5 -2 10 -3t10 -1q59 -2 113 82q50 76 52 145q2 55 -26 158q-7 29 -12 51t-9.5 52.5t-4.5 56.5t4.5 55.5t15.5 55.5q19 4 35 10
t23.5 10.5t5.5 6.5q-2 1 -6 1.5t-9 1.5t-10.5 1.5t-11 1.5t-10.5 1.5t-9.5 1t-6.5 0.5q-52 8 -78.5 -6.5t-43.5 -53.5q-8 -16 -13 -21t-14 -7t-36 -3q-34 -1 -40 0q-8 2 -4 15q6 22 21 43t33 33q30 21 66.5 23.5t173.5 -10.5q31 -3 46 -7l-5 -4q-6 -11 -9.5 -23.5t-5 -26.5
t-1.5 -32q-2 -38 7 -115q9 -76 8 -115q-5 -145 -78 -276q-85 -153 -205 -149q-100 3 -194 92q-100 95 -97 204q1 13 11 75.5t10 110.5q0 22 -1.5 50t-3.5 54t-4 48t-4 39.5t-2 19.5q0 6 8 10q1 0 2 1zM312 843q-5 -7 -13 -13q-127 76 -127 102q0 15 14 31q15 17 26 17
q3 0 5 -1q15 -13 47 -60z" />
    <glyph glyph-name="adieresis" unicode="&#xe4;" horiz-adv-x="827" 
d="M296 247q34 16 55 20.5t64 4.5q67 0 67 2t-47 141q-61 181 -75 182q-1 0 -3 -2q-5 -7 -43 -109t-81 -196q-11 -26 -21.5 -49t-17.5 -38.5t-8 -18.5q-2 -3 0 -3q6 0 27 17q32 25 83 49zM637 -4q-31 21 -57.5 61.5t-57.5 114.5q-26 63 -29 66q-1 1 -4 -4l-6 -14
q-3 -8 -6.5 -12t-7.5 -5.5t-8 -0.5q-79 23 -165.5 -3.5t-139.5 -89.5q-35 -41 -35 -44t74.5 -5t99 10.5t27 10t-40.5 -48.5l-42 -47l-58 10q-43 7 -92.5 6t-73.5 -9q-9 -3 -9 -2q2 4 13 15q78 72 147.5 226t114.5 355q5 21 32 30q6 2 11 4t9 4.5t6 4.5t2 4q0 3 -8 13.5
t-20 22.5q-17 17 -26 21t-23 1q-32 -8 -50.5 -34t-6.5 -47q5 -10 0.5 -15.5t-23.5 -16.5q-12 -7 -22.5 -12t-12.5 -5q-5 0 -5 31q0 32 30 59t114 70q39 20 58.5 28.5t33.5 12t22 0.5q37 -8 70 -67.5t74 -191.5q28 -92 68.5 -191t68.5 -144q15 -24 31 -42t32 -27t31 -9
q11 0 16 -3.5t2 -8t-13 -8.5q-13 -4 -50.5 -42.5t-37.5 -47.5q0 -22 -57 16zM488 875q0 -9 -20 -28q-15 -14 -25 -20q-2 -2 -5 -2q-13 0 -41 47q-1 2 -1 5q0 12 19 31.5t31 19.5q3 0 6 -2q36 -38 36 -51zM341 875q0 -9 -19 -28q-15 -14 -25 -20q-3 -2 -6 -2q-13 0 -40 47
q-1 2 -1 5q0 12 19 31.5t30 19.5q4 0 6 -2q36 -38 36 -51z" />
    <glyph glyph-name="edieresis" unicode="&#xeb;" horiz-adv-x="549" 
d="M381 763q11 0 20.5 -1.5t20.5 -5.5q7 -3 15.5 -7t16.5 -10t15 -12.5t13.5 -13.5t11.5 -15q6 -10 1 -13.5t-40 -12.5q-27 -6 -36.5 -7t-15.5 2.5t-18 17.5q-28 35 -74 36q-33 -2 -71 -14q-41 -20 -78 -99q-36 -78 -36 -188q0 -23 1 -45q70 34 107.5 49t65 19.5t45.5 -2.5
q14 -3 29 -10.5t28 -18t22 -22.5q6 -7 6 -10q-1 -6 -43 -21q-36 -12 -45 -11t-26 18q-60 59 -160 2q-7 -3 -13.5 -7.5t-12.5 -9.5q11 -101 58 -174q66 -102 175 -102q3 0 7 0.5t7.5 0.5t7.5 0.5t7.5 1l7 1t7.5 1.5q40 8 89 48l19 17q4 0 8 -7q3 -3 4 -5.5t1 -5.5
q0 -21 -47 -73q-77 -84 -185 -84q-121 0 -201.5 100t-80.5 256q0 159 90 293q5 7 8.5 11.5t9 12t9.5 13t9.5 12t11 11.5t11.5 10.5t12.5 10t13.5 8.5q51 19 83 30q75 25 109 25zM422 875q0 -9 -20 -28q-15 -14 -25 -20q-2 -2 -5 -2q-13 0 -41 47q-1 2 -1 5q0 12 19 31.5
t31 19.5q3 0 6 -2q36 -38 36 -51zM275 875q0 -9 -19 -28q-15 -14 -25 -20q-3 -2 -6 -2q-13 0 -40 47q-1 2 -1 5q0 12 19 31.5t30 19.5q4 0 6 -2q36 -38 36 -51z" />
    <glyph glyph-name="idieresis" unicode="&#xef;" horiz-adv-x="276" 
d="M230 695q-36 -137 -41 -326t25 -288q3 -10 1 -13.5t-13 -3.5q-19 0 -76 -16t-84 -30q-14 -6 -21.5 -8.5t-10.5 -1t-1.5 7.5t7.5 17q28 51 43 219t5 306q-4 48 -8 88.5t-6 47.5q-5 15 0 14q1 0 3 -1q13 -8 80 10.5t111 42.5q4 2 -14 -65zM262 872q0 -9 -20 -28
q-15 -14 -25 -20q-2 -2 -5 -2q-13 0 -41 47q-1 2 -1 5q0 12 19 31.5t31 19.5q3 0 6 -2q36 -38 36 -51zM115 872q0 -9 -19 -28q-15 -14 -25 -20q-3 -2 -6 -2q-13 0 -40 47q-1 2 -1 5q0 12 19 31.5t30 19.5q4 0 6 -2q36 -38 36 -51z" />
    <glyph glyph-name="odieresis" unicode="&#xf6;" horiz-adv-x="645" 
d="M297 774q34 -1 69 -12q101 -33 168 -133q91 -136 91 -292q-1 -43 -10 -88t-29.5 -91t-49.5 -83t-73 -62.5t-96 -30.5q-70 -6 -138.5 34t-122.5 109q-91 116 -91 292q0 157 81 257q38 43 92 71.5t109 28.5zM364 669q-109 0 -175 -102q-62 -97 -62 -243q0 -110 37 -188
l10 -20q10 -7 20 -12t19 -8.5t18 -5.5q23 -4 45 -4q109 0 175 102q62 96 62 242q0 110 -37 188q-5 11 -10 21q-31 19 -57 25q-23 5 -45 5zM422 879q0 -9 -20 -28q-15 -14 -25 -20q-2 -2 -5 -2q-13 0 -41 47q-1 2 -1 5q0 12 19 31.5t31 19.5q3 0 6 -2q36 -38 36 -51zM275 879
q0 -9 -19 -28q-15 -14 -25 -20q-3 -2 -6 -2q-13 0 -40 47q-1 2 -1 5q0 12 19 31.5t30 19.5q4 0 6 -2q36 -38 36 -51z" />
    <glyph glyph-name="udieresis" unicode="&#xfc;" 
d="M37 703q30 1 78 21q60 25 71 25q19 1 17 -26q-6 -36 -9 -132t-7 -134q-6 -47 -8 -67t-3.5 -63t5 -79.5t19.5 -74.5q35 -93 136 -127q5 -2 10 -3t10 -1q59 -2 113 82q50 76 52 145q2 55 -26 158q-7 29 -12 51t-9.5 52.5t-4.5 56.5t4.5 55.5t15.5 55.5q19 4 35 10
t23.5 10.5t5.5 6.5q-2 1 -6 1.5t-9 1.5t-10.5 1.5t-11 1.5t-10.5 1.5t-9.5 1t-6.5 0.5q-52 8 -78.5 -6.5t-43.5 -53.5q-8 -16 -13 -21t-14 -7t-36 -3q-34 -1 -40 0q-8 2 -4 15q6 22 21 43t33 33q30 21 66.5 23.5t173.5 -10.5q31 -3 46 -7l-5 -4q-6 -11 -9.5 -23.5t-5 -26.5
t-1.5 -32q-2 -38 7 -115q9 -76 8 -115q-5 -145 -78 -276q-85 -153 -205 -149q-100 3 -194 92q-100 95 -97 204q1 13 11 75.5t10 110.5q0 22 -1.5 50t-3.5 54t-4 48t-4 39.5t-2 19.5q0 6 8 10q1 0 2 1zM451 879q0 -9 -20 -28q-15 -14 -25 -20q-2 -2 -5 -2q-13 0 -41 47
q-1 2 -1 5q0 12 19 31.5t31 19.5q3 0 6 -2q36 -38 36 -51zM304 879q0 -9 -19 -28q-15 -14 -25 -20q-3 -2 -6 -2q-13 0 -40 47q-1 2 -1 5q0 12 19 31.5t30 19.5q4 0 6 -2q36 -38 36 -51z" />
    <glyph glyph-name="Adieresis" unicode="&#xc4;" horiz-adv-x="827" 
d="M296 247q34 16 55 20.5t64 4.5q67 0 67 2t-47 141q-61 181 -75 182q-1 0 -3 -2q-5 -7 -43 -109t-81 -196q-11 -26 -21.5 -49t-17.5 -38.5t-8 -18.5q-2 -3 0 -3q6 0 27 17q32 25 83 49zM637 -4q-31 21 -57.5 61.5t-57.5 114.5q-26 63 -29 66q-1 1 -4 -4l-6 -14
q-3 -8 -6.5 -12t-7.5 -5.5t-8 -0.5q-79 23 -165.5 -3.5t-139.5 -89.5q-35 -41 -35 -44t74.5 -5t99 10.5t27 10t-40.5 -48.5l-42 -47l-58 10q-43 7 -92.5 6t-73.5 -9q-9 -3 -9 -2q2 4 13 15q78 72 147.5 226t114.5 355q5 21 32 30q6 2 11 4t9 4.5t6 4.5t2 4q0 3 -8 13.5
t-20 22.5q-17 17 -26 21t-23 1q-32 -8 -50.5 -34t-6.5 -47q5 -10 0.5 -15.5t-23.5 -16.5q-12 -7 -22.5 -12t-12.5 -5q-5 0 -5 31q0 32 30 59t114 70q39 20 58.5 28.5t33.5 12t22 0.5q37 -8 70 -67.5t74 -191.5q28 -92 68.5 -191t68.5 -144q15 -24 31 -42t32 -27t31 -9
q11 0 16 -3.5t2 -8t-13 -8.5q-13 -4 -50.5 -42.5t-37.5 -47.5q0 -22 -57 16zM488 875q0 -9 -20 -28q-15 -14 -25 -20q-2 -2 -5 -2q-13 0 -41 47q-1 2 -1 5q0 12 19 31.5t31 19.5q3 0 6 -2q36 -38 36 -51zM341 875q0 -9 -19 -28q-15 -14 -25 -20q-3 -2 -6 -2q-13 0 -40 47
q-1 2 -1 5q0 12 19 31.5t30 19.5q4 0 6 -2q36 -38 36 -51z" />
    <glyph glyph-name="Edieresis" unicode="&#xcb;" horiz-adv-x="549" 
d="M381 763q11 0 20.5 -1.5t20.5 -5.5q7 -3 15.5 -7t16.5 -10t15 -12.5t13.5 -13.5t11.5 -15q6 -10 1 -13.5t-40 -12.5q-27 -6 -36.5 -7t-15.5 2.5t-18 17.5q-28 35 -74 36q-33 -2 -71 -14q-41 -20 -78 -99q-36 -78 -36 -188q0 -23 1 -45q70 34 107.5 49t65 19.5t45.5 -2.5
q14 -3 29 -10.5t28 -18t22 -22.5q6 -7 6 -10q-1 -6 -43 -21q-36 -12 -45 -11t-26 18q-60 59 -160 2q-7 -3 -13.5 -7.5t-12.5 -9.5q11 -101 58 -174q66 -102 175 -102q3 0 7 0.5t7.5 0.5t7.5 0.5t7.5 1l7 1t7.5 1.5q40 8 89 48l19 17q4 0 8 -7q3 -3 4 -5.5t1 -5.5
q0 -21 -47 -73q-77 -84 -185 -84q-121 0 -201.5 100t-80.5 256q0 159 90 293q5 7 8.5 11.5t9 12t9.5 13t9.5 12t11 11.5t11.5 10.5t12.5 10t13.5 8.5q51 19 83 30q75 25 109 25zM422 875q0 -9 -20 -28q-15 -14 -25 -20q-2 -2 -5 -2q-13 0 -41 47q-1 2 -1 5q0 12 19 31.5
t31 19.5q3 0 6 -2q36 -38 36 -51zM275 875q0 -9 -19 -28q-15 -14 -25 -20q-3 -2 -6 -2q-13 0 -40 47q-1 2 -1 5q0 12 19 31.5t30 19.5q4 0 6 -2q36 -38 36 -51z" />
    <glyph glyph-name="Idieresis" unicode="&#xcf;" horiz-adv-x="276" 
d="M230 695q-36 -137 -41 -326t25 -288q3 -10 1 -13.5t-13 -3.5q-19 0 -76 -16t-84 -30q-14 -6 -21.5 -8.5t-10.5 -1t-1.5 7.5t7.5 17q28 51 43 219t5 306q-4 48 -8 88.5t-6 47.5q-5 15 0 14q1 0 3 -1q13 -8 80 10.5t111 42.5q4 2 -14 -65zM262 872q0 -9 -20 -28
q-15 -14 -25 -20q-2 -2 -5 -2q-13 0 -41 47q-1 2 -1 5q0 12 19 31.5t31 19.5q3 0 6 -2q36 -38 36 -51zM115 872q0 -9 -19 -28q-15 -14 -25 -20q-3 -2 -6 -2q-13 0 -40 47q-1 2 -1 5q0 12 19 31.5t30 19.5q4 0 6 -2q36 -38 36 -51z" />
    <glyph glyph-name="Odieresis" unicode="&#xd6;" horiz-adv-x="645" 
d="M297 774q34 -1 69 -12q101 -33 168 -133q91 -136 91 -292q-1 -43 -10 -88t-29.5 -91t-49.5 -83t-73 -62.5t-96 -30.5q-70 -6 -138.5 34t-122.5 109q-91 116 -91 292q0 157 81 257q38 43 92 71.5t109 28.5zM364 669q-109 0 -175 -102q-62 -97 -62 -243q0 -110 37 -188
l10 -20q10 -7 20 -12t19 -8.5t18 -5.5q23 -4 45 -4q109 0 175 102q62 96 62 242q0 110 -37 188q-5 11 -10 21q-31 19 -57 25q-23 5 -45 5zM422 879q0 -9 -20 -28q-15 -14 -25 -20q-2 -2 -5 -2q-13 0 -41 47q-1 2 -1 5q0 12 19 31.5t31 19.5q3 0 6 -2q36 -38 36 -51zM275 879
q0 -9 -19 -28q-15 -14 -25 -20q-3 -2 -6 -2q-13 0 -40 47q-1 2 -1 5q0 12 19 31.5t30 19.5q4 0 6 -2q36 -38 36 -51z" />
    <glyph glyph-name="Udieresis" unicode="&#xdc;" 
d="M37 703q30 1 78 21q60 25 71 25q19 1 17 -26q-6 -36 -9 -132t-7 -134q-6 -47 -8 -67t-3.5 -63t5 -79.5t19.5 -74.5q35 -93 136 -127q5 -2 10 -3t10 -1q59 -2 113 82q50 76 52 145q2 55 -26 158q-7 29 -12 51t-9.5 52.5t-4.5 56.5t4.5 55.5t15.5 55.5q19 4 35 10
t23.5 10.5t5.5 6.5q-2 1 -6 1.5t-9 1.5t-10.5 1.5t-11 1.5t-10.5 1.5t-9.5 1t-6.5 0.5q-52 8 -78.5 -6.5t-43.5 -53.5q-8 -16 -13 -21t-14 -7t-36 -3q-34 -1 -40 0q-8 2 -4 15q6 22 21 43t33 33q30 21 66.5 23.5t173.5 -10.5q31 -3 46 -7l-5 -4q-6 -11 -9.5 -23.5t-5 -26.5
t-1.5 -32q-2 -38 7 -115q9 -76 8 -115q-5 -145 -78 -276q-85 -153 -205 -149q-100 3 -194 92q-100 95 -97 204q1 13 11 75.5t10 110.5q0 22 -1.5 50t-3.5 54t-4 48t-4 39.5t-2 19.5q0 6 8 10q1 0 2 1zM451 879q0 -9 -20 -28q-15 -14 -25 -20q-2 -2 -5 -2q-13 0 -41 47
q-1 2 -1 5q0 12 19 31.5t31 19.5q3 0 6 -2q36 -38 36 -51zM304 879q0 -9 -19 -28q-15 -14 -25 -20q-3 -2 -6 -2q-13 0 -40 47q-1 2 -1 5q0 12 19 31.5t30 19.5q4 0 6 -2q36 -38 36 -51z" />
    <glyph glyph-name="acircumflex" unicode="&#xe2;" horiz-adv-x="827" 
d="M296 247q34 16 55 20.5t64 4.5q67 0 67 2t-47 141q-61 181 -75 182q-1 0 -3 -2q-5 -7 -43 -109t-81 -196q-11 -26 -21.5 -49t-17.5 -38.5t-8 -18.5q-2 -3 0 -3q6 0 27 17q32 25 83 49zM637 -4q-31 21 -57.5 61.5t-57.5 114.5q-26 63 -29 66q-1 1 -4 -4l-6 -14
q-3 -8 -6.5 -12t-7.5 -5.5t-8 -0.5q-79 23 -165.5 -3.5t-139.5 -89.5q-35 -41 -35 -44t74.5 -5t99 10.5t27 10t-40.5 -48.5l-42 -47l-58 10q-43 7 -92.5 6t-73.5 -9q-9 -3 -9 -2q2 4 13 15q78 72 147.5 226t114.5 355q5 21 32 30q6 2 11 4t9 4.5t6 4.5t2 4q0 3 -8 13.5
t-20 22.5q-17 17 -26 21t-23 1q-32 -8 -50.5 -34t-6.5 -47q5 -10 0.5 -15.5t-23.5 -16.5q-12 -7 -22.5 -12t-12.5 -5q-5 0 -5 31q0 32 30 59t114 70q39 20 58.5 28.5t33.5 12t22 0.5q37 -8 70 -67.5t74 -191.5q28 -92 68.5 -191t68.5 -144q15 -24 31 -42t32 -27t31 -9
q11 0 16 -3.5t2 -8t-13 -8.5q-13 -4 -50.5 -42.5t-37.5 -47.5q0 -22 -57 16zM498 901q2 -4 2 -13q0 -16 -7 -36q-6 -21 -13 -27l-114 132l-114 -132q-7 6 -14 27q-6 20 -6 36q0 9 2 13l132 159z" />
    <glyph glyph-name="ecircumflex" unicode="&#xea;" horiz-adv-x="549" 
d="M381 763q11 0 20.5 -1.5t20.5 -5.5q7 -3 15.5 -7t16.5 -10t15 -12.5t13.5 -13.5t11.5 -15q6 -10 1 -13.5t-40 -12.5q-27 -6 -36.5 -7t-15.5 2.5t-18 17.5q-28 35 -74 36q-33 -2 -71 -14q-41 -20 -78 -99q-36 -78 -36 -188q0 -23 1 -45q70 34 107.5 49t65 19.5t45.5 -2.5
q14 -3 29 -10.5t28 -18t22 -22.5q6 -7 6 -10q-1 -6 -43 -21q-36 -12 -45 -11t-26 18q-60 59 -160 2q-7 -3 -13.5 -7.5t-12.5 -9.5q11 -101 58 -174q66 -102 175 -102q3 0 7 0.5t7.5 0.5t7.5 0.5t7.5 1l7 1t7.5 1.5q40 8 89 48l19 17q4 0 8 -7q3 -3 4 -5.5t1 -5.5
q0 -21 -47 -73q-77 -84 -185 -84q-121 0 -201.5 100t-80.5 256q0 159 90 293q5 7 8.5 11.5t9 12t9.5 13t9.5 12t11 11.5t11.5 10.5t12.5 10t13.5 8.5q51 19 83 30q75 25 109 25zM393 897q2 -4 2 -13q0 -16 -7 -36q-6 -21 -13 -27l-114 132l-114 -132q-7 6 -14 27
q-6 20 -6 36q0 9 2 13l132 159z" />
    <glyph glyph-name="icircumflex" unicode="&#xee;" horiz-adv-x="276" 
d="M230 695q-36 -137 -41 -326t25 -288q3 -10 1 -13.5t-13 -3.5q-19 0 -76 -16t-84 -30q-14 -6 -21.5 -8.5t-10.5 -1t-1.5 7.5t7.5 17q28 51 43 219t5 306q-4 48 -8 88.5t-6 47.5q-5 15 0 14q1 0 3 -1q13 -8 80 10.5t111 42.5q4 2 -14 -65zM272 897q2 -4 2 -13q0 -16 -7 -36
q-6 -21 -13 -27l-114 132l-114 -132q-7 6 -14 27q-6 20 -6 36q0 9 2 13l132 159z" />
    <glyph glyph-name="ocircumflex" unicode="&#xf4;" horiz-adv-x="645" 
d="M297 774q34 -1 69 -12q101 -33 168 -133q91 -136 91 -292q-1 -43 -10 -88t-29.5 -91t-49.5 -83t-73 -62.5t-96 -30.5q-70 -6 -138.5 34t-122.5 109q-91 116 -91 292q0 157 81 257q38 43 92 71.5t109 28.5zM364 669q-109 0 -175 -102q-62 -97 -62 -243q0 -110 37 -188
l10 -20q10 -7 20 -12t19 -8.5t18 -5.5q23 -4 45 -4q109 0 175 102q62 96 62 242q0 110 -37 188q-5 11 -10 21q-31 19 -57 25q-23 5 -45 5zM438 901q2 -4 2 -13q0 -16 -7 -36q-6 -21 -13 -27l-114 132l-114 -132q-7 6 -14 27q-6 20 -6 36q0 9 2 13l132 159z" />
    <glyph glyph-name="ucircumflex" unicode="&#xfb;" 
d="M37 703q30 1 78 21q60 25 71 25q19 1 17 -26q-6 -36 -9 -132t-7 -134q-6 -47 -8 -67t-3.5 -63t5 -79.5t19.5 -74.5q35 -93 136 -127q5 -2 10 -3t10 -1q59 -2 113 82q50 76 52 145q2 55 -26 158q-7 29 -12 51t-9.5 52.5t-4.5 56.5t4.5 55.5t15.5 55.5q19 4 35 10
t23.5 10.5t5.5 6.5q-2 1 -6 1.5t-9 1.5t-10.5 1.5t-11 1.5t-10.5 1.5t-9.5 1t-6.5 0.5q-52 8 -78.5 -6.5t-43.5 -53.5q-8 -16 -13 -21t-14 -7t-36 -3q-34 -1 -40 0q-8 2 -4 15q6 22 21 43t33 33q30 21 66.5 23.5t173.5 -10.5q31 -3 46 -7l-5 -4q-6 -11 -9.5 -23.5t-5 -26.5
t-1.5 -32q-2 -38 7 -115q9 -76 8 -115q-5 -145 -78 -276q-85 -153 -205 -149q-100 3 -194 92q-100 95 -97 204q1 13 11 75.5t10 110.5q0 22 -1.5 50t-3.5 54t-4 48t-4 39.5t-2 19.5q0 6 8 10q1 0 2 1zM439 897q2 -4 2 -13q0 -16 -7 -36q-6 -21 -13 -27l-114 132l-114 -132
q-7 6 -14 27q-6 20 -6 36q0 9 2 13l132 159z" />
    <glyph glyph-name="Acircumflex" unicode="&#xc2;" horiz-adv-x="827" 
d="M296 247q34 16 55 20.5t64 4.5q67 0 67 2t-47 141q-61 181 -75 182q-1 0 -3 -2q-5 -7 -43 -109t-81 -196q-11 -26 -21.5 -49t-17.5 -38.5t-8 -18.5q-2 -3 0 -3q6 0 27 17q32 25 83 49zM637 -4q-31 21 -57.5 61.5t-57.5 114.5q-26 63 -29 66q-1 1 -4 -4l-6 -14
q-3 -8 -6.5 -12t-7.5 -5.5t-8 -0.5q-79 23 -165.5 -3.5t-139.5 -89.5q-35 -41 -35 -44t74.5 -5t99 10.5t27 10t-40.5 -48.5l-42 -47l-58 10q-43 7 -92.5 6t-73.5 -9q-9 -3 -9 -2q2 4 13 15q78 72 147.5 226t114.5 355q5 21 32 30q6 2 11 4t9 4.5t6 4.5t2 4q0 3 -8 13.5
t-20 22.5q-17 17 -26 21t-23 1q-32 -8 -50.5 -34t-6.5 -47q5 -10 0.5 -15.5t-23.5 -16.5q-12 -7 -22.5 -12t-12.5 -5q-5 0 -5 31q0 32 30 59t114 70q39 20 58.5 28.5t33.5 12t22 0.5q37 -8 70 -67.5t74 -191.5q28 -92 68.5 -191t68.5 -144q15 -24 31 -42t32 -27t31 -9
q11 0 16 -3.5t2 -8t-13 -8.5q-13 -4 -50.5 -42.5t-37.5 -47.5q0 -22 -57 16zM498 901q2 -4 2 -13q0 -16 -7 -36q-6 -21 -13 -27l-114 132l-114 -132q-7 6 -14 27q-6 20 -6 36q0 9 2 13l132 159z" />
    <glyph glyph-name="Ecircumflex" unicode="&#xca;" horiz-adv-x="549" 
d="M381 763q11 0 20.5 -1.5t20.5 -5.5q7 -3 15.5 -7t16.5 -10t15 -12.5t13.5 -13.5t11.5 -15q6 -10 1 -13.5t-40 -12.5q-27 -6 -36.5 -7t-15.5 2.5t-18 17.5q-28 35 -74 36q-33 -2 -71 -14q-41 -20 -78 -99q-36 -78 -36 -188q0 -23 1 -45q70 34 107.5 49t65 19.5t45.5 -2.5
q14 -3 29 -10.5t28 -18t22 -22.5q6 -7 6 -10q-1 -6 -43 -21q-36 -12 -45 -11t-26 18q-60 59 -160 2q-7 -3 -13.5 -7.5t-12.5 -9.5q11 -101 58 -174q66 -102 175 -102q3 0 7 0.5t7.5 0.5t7.5 0.5t7.5 1l7 1t7.5 1.5q40 8 89 48l19 17q4 0 8 -7q3 -3 4 -5.5t1 -5.5
q0 -21 -47 -73q-77 -84 -185 -84q-121 0 -201.5 100t-80.5 256q0 159 90 293q5 7 8.5 11.5t9 12t9.5 13t9.5 12t11 11.5t11.5 10.5t12.5 10t13.5 8.5q51 19 83 30q75 25 109 25zM393 897q2 -4 2 -13q0 -16 -7 -36q-6 -21 -13 -27l-114 132l-114 -132q-7 6 -14 27
q-6 20 -6 36q0 9 2 13l132 159z" />
    <glyph glyph-name="Icircumflex" unicode="&#xce;" horiz-adv-x="276" 
d="M230 695q-36 -137 -41 -326t25 -288q3 -10 1 -13.5t-13 -3.5q-19 0 -76 -16t-84 -30q-14 -6 -21.5 -8.5t-10.5 -1t-1.5 7.5t7.5 17q28 51 43 219t5 306q-4 48 -8 88.5t-6 47.5q-5 15 0 14q1 0 3 -1q13 -8 80 10.5t111 42.5q4 2 -14 -65zM272 897q2 -4 2 -13q0 -16 -7 -36
q-6 -21 -13 -27l-114 132l-114 -132q-7 6 -14 27q-6 20 -6 36q0 9 2 13l132 159z" />
    <glyph glyph-name="Ocircumflex" unicode="&#xd4;" horiz-adv-x="645" 
d="M297 774q34 -1 69 -12q101 -33 168 -133q91 -136 91 -292q-1 -43 -10 -88t-29.5 -91t-49.5 -83t-73 -62.5t-96 -30.5q-70 -6 -138.5 34t-122.5 109q-91 116 -91 292q0 157 81 257q38 43 92 71.5t109 28.5zM364 669q-109 0 -175 -102q-62 -97 -62 -243q0 -110 37 -188
l10 -20q10 -7 20 -12t19 -8.5t18 -5.5q23 -4 45 -4q109 0 175 102q62 96 62 242q0 110 -37 188q-5 11 -10 21q-31 19 -57 25q-23 5 -45 5zM438 901q2 -4 2 -13q0 -16 -7 -36q-6 -21 -13 -27l-114 132l-114 -132q-7 6 -14 27q-6 20 -6 36q0 9 2 13l132 159z" />
    <glyph glyph-name="Ucircumflex" unicode="&#xdb;" 
d="M37 703q30 1 78 21q60 25 71 25q19 1 17 -26q-6 -36 -9 -132t-7 -134q-6 -47 -8 -67t-3.5 -63t5 -79.5t19.5 -74.5q35 -93 136 -127q5 -2 10 -3t10 -1q59 -2 113 82q50 76 52 145q2 55 -26 158q-7 29 -12 51t-9.5 52.5t-4.5 56.5t4.5 55.5t15.5 55.5q19 4 35 10
t23.5 10.5t5.5 6.5q-2 1 -6 1.5t-9 1.5t-10.5 1.5t-11 1.5t-10.5 1.5t-9.5 1t-6.5 0.5q-52 8 -78.5 -6.5t-43.5 -53.5q-8 -16 -13 -21t-14 -7t-36 -3q-34 -1 -40 0q-8 2 -4 15q6 22 21 43t33 33q30 21 66.5 23.5t173.5 -10.5q31 -3 46 -7l-5 -4q-6 -11 -9.5 -23.5t-5 -26.5
t-1.5 -32q-2 -38 7 -115q9 -76 8 -115q-5 -145 -78 -276q-85 -153 -205 -149q-100 3 -194 92q-100 95 -97 204q1 13 11 75.5t10 110.5q0 22 -1.5 50t-3.5 54t-4 48t-4 39.5t-2 19.5q0 6 8 10q1 0 2 1zM439 897q2 -4 2 -13q0 -16 -7 -36q-6 -21 -13 -27l-114 132l-114 -132
q-7 6 -14 27q-6 20 -6 36q0 9 2 13l132 159z" />
    <glyph glyph-name="backslash" unicode="\" horiz-adv-x="690" 
d="M561 -7q-13 -2 -53 18q-14 8 -27 18.5t-26 24.5q-8 7 -15.5 15t-15.5 19t-16 24t-17 28.5t-18 33.5t-19 39q-5 8 -8 13l-22 45h1q0 1 -18 40.5t-43 94.5q-1 2 -1.5 3.5t-1.5 3.5l-2 4q-64 125 -105 179q-26 34 -53 52t-48 16q-18 -2 -20.5 5t12.5 14q6 2 19.5 16.5
t26.5 31t22.5 31.5t9.5 20q-1 5 3 7q1 1 3 1q6 1 19.5 -3.5t33.5 -14.5q4 -3 8.5 -5.5t9 -5.5t9 -7t9 -7.5t9 -8t8.5 -9.5q43 -36 101 -159q5 -8 8 -13l22 -45h-1q0 -1 1 -3t2.5 -6.5t4.5 -10t6.5 -13t7 -16.5t8.5 -19t10 -21t10 -22.5t11 -23.5q1 -2 2.5 -5.5t2.5 -5.5
q64 -125 105 -179q13 -17 26.5 -30.5t26.5 -22t25.5 -12.5t22.5 -3q18 2 20.5 -5t-12.5 -14q-8 -3 -27.5 -25t-35 -45t-15.5 -29q1 -5 -3 -7l-2 -1h-1z" />
    <glyph glyph-name="quotedblright" unicode="&#x201d;" horiz-adv-x="274" 
d="M244 721q0 -22 -14 -68q-9 -25 -11 -27q-6 -14 -20 -20q-9 8 -12 25q-4 14 -6 29q-1 3 -13 34q-8 23 -8 37q0 8 4 17q10 11 21 21q14 11 25 11q14 0 24 -21t10 -38zM114 720q0 -27 -13 -64q-14 -43 -31 -50q-10 8 -14 25q-3 14 -5 29q-1 4 -13 35q-8 22 -8 36q0 9 3 17
q11 11 22 21q14 11 25 11q14 0 23 -21q11 -21 11 -39z" />
    <glyph glyph-name="quotedblleft" unicode="&#x201c;" horiz-adv-x="274" 
d="M114 666q0 -18 -11 -39q-9 -21 -23 -21q-11 0 -25 11q-11 10 -22 21q-3 8 -3 17q0 14 8 36q12 31 13 35q2 15 5 29q4 17 14 25q17 -7 31 -50q13 -37 13 -64zM244 665q0 -17 -10 -38t-24 -21q-11 0 -25 11q-11 10 -21 21q-4 9 -4 17q0 14 8 37q12 31 13 34q2 15 6 29
q3 17 12 25q14 -6 20 -20q2 -2 11 -27q14 -46 14 -68z" />
    <glyph glyph-name="quotesingle" unicode="'" horiz-adv-x="144" 
d="M114 720q0 -27 -13 -64q-14 -43 -31 -50q-10 8 -14 25q-3 14 -5 29q-1 4 -13 35q-8 22 -8 36q0 9 3 17q11 11 22 21q14 11 25 11q14 0 23 -21q11 -21 11 -39z" />
    <glyph glyph-name="quoteright" unicode="&#x2019;" horiz-adv-x="144" 
d="M114 720q0 -27 -13 -64q-14 -43 -31 -50q-10 8 -14 25q-3 14 -5 29q-1 4 -13 35q-8 22 -8 36q0 9 3 17q11 11 22 21q14 11 25 11q14 0 23 -21q11 -21 11 -39z" />
    <glyph glyph-name="quoteleft" unicode="&#x2018;" horiz-adv-x="144" 
d="M114 666q0 -18 -11 -39q-9 -21 -23 -21q-11 0 -25 11q-11 10 -22 21q-3 8 -3 17q0 14 8 36q12 31 13 35q2 15 5 29q4 17 14 25q17 -7 31 -50q13 -37 13 -64z" />
    <glyph glyph-name="endash" unicode="&#x2013;" horiz-adv-x="524" 
d="M494 448q0 -28 -33 -79q-31 -50 -53 -50h-378q0 42 52 129h412z" />
    <glyph glyph-name="emdash" unicode="&#x2014;" horiz-adv-x="694" 
d="M664 448q0 -28 -33 -79q-31 -50 -53 -50h-548q0 42 52 129h582z" />
    <glyph glyph-name="guilsinglright" unicode="&#x203a;" horiz-adv-x="354" 
d="M324 361l-200 -176q-4 -4 -17 -4q-18 0 -43.5 12t-33.5 23q37 31 165 145l-165 145q8 11 33.5 23t45.5 12q11 0 15 -4q38 -33 200 -176z" />
    <glyph glyph-name="guillemotright" unicode="&#xbb;" horiz-adv-x="564" 
d="M324 361l-200 -176q-4 -4 -17 -4q-18 0 -43.5 12t-33.5 23q37 31 165 145l-165 145q8 11 33.5 23t45.5 12q11 0 15 -4q38 -33 200 -176zM534 361l-200 -176q-4 -4 -17 -4q-18 0 -43.5 12t-33.5 23q37 31 165 145l-165 145q8 11 33.5 23t45.5 12q11 0 15 -4
q38 -33 200 -176z" />
    <glyph glyph-name="guilsinglleft" unicode="&#x2039;" horiz-adv-x="354" 
d="M30 361q162 143 200 176q4 4 15 4q20 0 45.5 -12t33.5 -23l-165 -145q128 -114 165 -145q-8 -11 -33.5 -23t-43.5 -12q-13 0 -17 4l-200 176v0z" />
    <glyph glyph-name="guillemotleft" unicode="&#xab;" horiz-adv-x="564" 
d="M30 361q162 143 200 176q4 4 15 4q20 0 45.5 -12t33.5 -23l-165 -145q128 -114 165 -145q-8 -11 -33.5 -23t-43.5 -12q-13 0 -17 4l-200 176v0zM240 361q162 143 200 176q4 4 15 4q20 0 45.5 -12t33.5 -23l-165 -145q128 -114 165 -145q-8 -11 -33.5 -23t-43.5 -12
q-13 0 -17 4l-200 176v0z" />
    <glyph glyph-name="equal" unicode="=" horiz-adv-x="464" 
d="M434 468q0 -28 -33 -79q-31 -50 -53 -50h-318q0 42 52 129h352zM434 258q0 -28 -33 -79q-31 -50 -53 -50h-318q0 42 52 129h352z" />
    <glyph glyph-name="dagger" unicode="&#x2020;" horiz-adv-x="251" 
d="M53 61q-19 -15 -21 -12q-2 1 5 20q21 56 15 101q-2 12 -6 19q-2 3 -2 3.5t3 4.5q8 14 19 37q23 52 42 167.5t20 222.5q0 2 -0.5 3.5t-0.5 2.5q-4 2 -8.5 2t-5.5 -1q0 -2 -1 -7t-2 -7.5t-4 -4.5h-7t-5 1t-3 2.5t-3 1.5q-6 10 2.5 19.5t22.5 9.5q3 0 6.5 0.5t6 1t4.5 1.5
t3 2q2 17 2 57.5t1.5 82t6.5 64.5q2 13 8.5 20.5t16.5 9.5q11 3 20 -3t9 -15q-1 -5 -2.5 -8t-4 -5t-5 -3t-4.5 -1h-6h-6h-2l-1 -22q-2 -18 -2.5 -62.5t0.5 -82t3 -38.5q2 -2 19 -1q14 1 13 4q-1 1 -4 3q-5 4 -0.5 11t8.5 7q4 -1 8.5 -4t7 -7.5t1.5 -7.5q-3 -9 -14 -13.5
t-21.5 -7t-13.5 -4.5v-48t3 -87q5 -74 -16.5 -183.5t-50.5 -171.5q-15 -31 -26.5 -47t-27.5 -27z" />
    <glyph glyph-name="daggerdbl" unicode="&#x2021;" horiz-adv-x="389" 
d="M191 61q-19 -15 -21 -12q-2 1 5 20q21 56 15 101q-2 12 -6 19q-2 3 -2 3.5t3 4.5q8 14 19 37q23 52 42 167.5t20 222.5q0 2 -0.5 3.5t-0.5 2.5q-4 2 -8.5 2t-5.5 -1q0 -2 -1 -7t-2 -7.5t-4 -4.5h-7t-5 1t-3 2.5t-3 1.5q-6 10 2.5 19.5t22.5 9.5q3 0 6.5 0.5t6 1t4.5 1.5
t3 2q2 17 2 57.5t1.5 82t6.5 64.5q2 13 8.5 20.5t16.5 9.5q11 3 20 -3t9 -15q-1 -5 -2.5 -8t-4 -5t-5 -3t-4.5 -1h-6h-6h-2l-1 -22q-2 -18 -2.5 -62.5t0.5 -82t3 -38.5q2 -2 19 -1q14 1 13 4q-1 1 -4 3q-5 4 -0.5 11t8.5 7q4 -1 8.5 -4t7 -7.5t1.5 -7.5q-3 -9 -14 -13.5
t-21.5 -7t-13.5 -4.5v-48t3 -87q5 -74 -16.5 -183.5t-50.5 -171.5q-15 -31 -26.5 -47t-27.5 -27zM198 885q19 15 21 12q2 -1 -5 -20q-21 -56 -15 -101q2 -12 6 -19q2 -3 2 -3.5t-3 -4.5q-8 -14 -19 -37q-23 -52 -42 -167.5t-20 -222.5q0 -2 0.5 -3.5t0.5 -2.5q4 -2 8.5 -2
t5.5 1q0 2 1 7t2 7.5t4 4.5h7t5 -1t3 -2.5t3 -1.5q6 -10 -2.5 -19.5t-22.5 -9.5q-3 0 -6.5 -0.5t-6 -1t-4.5 -1.5t-3 -2q-2 -17 -2 -57.5t-1.5 -82t-6.5 -64.5q-2 -13 -8.5 -20.5t-16.5 -9.5q-11 -3 -20 3t-9 15q1 5 2.5 8t4 5t5 3t4.5 1h6h6h2l1 22q2 18 2.5 62.5t-0.5 82
t-3 38.5q-2 2 -19 1q-14 -1 -13 -4q1 -1 4 -3q5 -4 0.5 -11t-8.5 -7q-4 1 -8.5 4t-7 7.5t-1.5 7.5q3 9 14 13.5t21.5 7t13.5 4.5v48t-3 87q-5 74 16.5 183.5t50.5 171.5q15 31 26.5 47t27.5 27z" />
    <glyph glyph-name="asciitilde" unicode="~" horiz-adv-x="598" 
d="M209 413q9 0 17 -2q33 -6 122 -51q97 -47 99 -47q49 -9 75 53q4 7 11 6l28 -5q7 -1 3 -12q-22 -65 -73 -111q-55 -57 -110 -47q-46 9 -127 54q-64 37 -87 40q-56 10 -89 -60q-3 -6 -10 -5l-30 5q-8 2 6 29q29 71 79 115q46 38 86 38z" />
    <glyph glyph-name="bar" unicode="|" horiz-adv-x="330" 
d="M156 893h2q5 0 6 -5q3 -5 28 -17t53 -21.5t36 -8.5q17 1 18 -6t-15 -14q-10 -4 -18.5 -14t-15.5 -23.5t-12 -32t-8 -40.5q-9 -67 -3 -207q0 -2 0.5 -6t0.5 -6q1 -13 2.5 -25.5t2.5 -24.5t1.5 -23.5t2 -21t2.5 -17.5t1 -14.5t1 -11t1 -7v-3.5l1 1l4 -50q-1 -6 -1 -15
q11 -136 -9 -188q-1 -7 -2.5 -13t-3.5 -11.5l-4 -11t-4.5 -10.5t-5 -9t-4.5 -9q-13 -19 -22.5 -29.5t-15.5 -12.5q-1 -1 -3 -1q-4 0 -6 5q-2 4 -18 12.5t-35.5 16.5t-38 13.5t-25.5 4.5q-16 -1 -17.5 6t15.5 15q19 8 33.5 37t20.5 72q9 67 2 207v5t-0.5 3.5t-0.5 3.5
q-5 61 -9 104t-5 44l-1 -1l-3 50q0 6 1 16q-2 23 -3 43t-1 38t0.5 33t2 28.5t4 24.5t5.5 21q5 18 11 33.5t14 29.5q25 38 37 42z" />
    <glyph glyph-name="multiply" unicode="&#xd7;" horiz-adv-x="414" 
d="M384 256q-19 -15 -76 -23q-55 -7 -68 9l-48 56l-136 -115q-21 24 -22 116l93 78l-98 117q28 24 123 39l66 -79l138 115q15 -18 14 -70.5t-18 -66.5l-67 -57z" />
    <glyph glyph-name="plusminus" unicode="&#xb1;" horiz-adv-x="388" 
d="M358 550q0 -20 -25 -59q-23 -37 -40 -37h-59v-143q-26 0 -82 46v97h-122q0 30 39 96h83v144q19 0 50.5 -27.5t31.5 -46.5v-70h124zM353 276q0 -22 -26 -63q-25 -40 -43 -40h-254q0 34 42 103h281z" />
    <glyph glyph-name="trademark" unicode="&#x2122;" horiz-adv-x="817" 
d="M364 783q2 0 2 -2.5v-10.5q-3 -13 -2 -77q1 -48 -1 -55q-1 -5 -6 -1q-5 5 -14 28.5t-14 48.5q-2 5 -6 12t-9 12q-8 9 -13.5 10t-24.5 0q-6 0 -13 -1q-1 -2 -1.5 -4t-2.5 -3q-15 -26 -23.5 -121.5t-1.5 -165.5q4 -59 8 -67q1 -4 1 -5q0 -4 -3 -2q-5 2 -24 -1t-42.5 -10
t-39.5 -15q-3 -2 7 32q13 44 19 110t3 127t-13 93q-3 5 -1.5 7t7.5 2q8 0 31 5.5t43 11.5q-10 -2 -18.5 -3t-16.5 -1q-9 0 -38 2t-62 3h-12l-1 -28q-2 -28 -11 -55q-3 -12 -12.5 -33t-17.5 -36t-9.5 -13.5t3.5 20.5q5 20 6.5 51.5t-2.5 48.5q-4 18 -5 25t12 15q4 3 9.5 7.5
t11.5 10t10 9.5l17 17l31 -4q10 -2 24 -3t28.5 -2t30.5 -1.5t31 0t30.5 1.5t29.5 2q50 6 59 8q4 1 6 1zM478 780q6 0 13 -3.5t14 -8.5t15.5 -12.5t17 -17t17.5 -21.5t18 -25t18 -27.5t17 -29.5q12 16 20.5 37t18 49t15.5 44q2 7 5 10t6.5 2.5t7.5 -4.5q2 -3 9.5 -7.5
t15.5 -8.5l20 -8l1 -123q0 -100 3.5 -136.5t16.5 -61.5q5 -8 12 -16t15 -14l13 -9q-1 0 -7 1q-11 3 -27 3.5t-31 -2t-22 -5.5l-14 -8l-16 15q-16 14 -26 19l-10 5l9 3q15 5 38 6.5t36 -4.5q2 -1 4.5 -1.5l5 -1t4 -1t2 -0.5h0.5q0 1 -11 13q-15 14 -18 37.5t-1 96.5
q3 88 0 112l-3 24l-14 -40q-14 -41 -35 -80t-49 -69q0 -1 -1.5 -2.5l-2.5 -2.5q-27 58 -45 90q-19 26 -36.5 49.5t-29.5 35.5t-13 8q-6 -6 -9.5 -65t-1.5 -104q1 -42 3 -57.5t8 -26.5q16 -31 48 -22q12 4 13.5 3t-7.5 -10q-3 -3 -6.5 -7t-6 -8t-3.5 -7q-2 -4 -3.5 -5.5
t-6 -2.5t-10.5 -0.5t-18 2.5q-71 6 -87 -3q-9 -4 -9 -2t16 18q25 24 34.5 73.5t7.5 142.5l-2 81l12 7q8 3 10 6t-1 6t-13 7q-25 13 -42 0q-3 -3 -6.5 -4t-4.5 0q-2 1 17.5 17t41 32t26.5 18q2 0 3 0.5z" />
    <glyph glyph-name="Euro" unicode="&#x20ac;" horiz-adv-x="545" 
d="M103 303v10q0 28 4 55h-77q0 33 43 103h61q16 40 41 77q9 12 14.5 20t15 19t19 18.5t19.5 14.5q11 3 19 5.5t17 6.5t16.5 6.5t14.5 4.5q15 5 27.5 9t24 6.5t20 3.5t15.5 1q16 0 33 -5q15 -6 31.5 -18.5t25.5 -27.5q3 -5 3 -9q0 -5 -35 -12q-28 -8 -35 -6t-20 16
q-22 27 -60 29q-25 -2 -56 -12q-12 -6 -23.5 -18t-21 -27t-17.5 -33q-15 -32 -22 -69h307q0 -23 -27 -63q-25 -40 -42 -40h-245q2 -35 7 -65h307q0 -23 -27 -63q-25 -40 -42 -40h-199l4 -5q52 -82 140 -82q17 0 35 4q32 6 71 39l15 12q3 0 6 -5q5 -3 5 -8q0 -17 -38 -59
q-62 -68 -148 -68q-97 0 -162 80q-32 40 -48 92h-89q0 33 43 103h30z" />
    <glyph glyph-name="numbersign" unicode="#" horiz-adv-x="550" 
d="M520 261q0 -23 -27 -64q-25 -40 -43 -40h-101l-55 -121q-21 10 -47 51q-26 40 -18 56l5 14h-72l-22 -48q-20 8 -46 48h-64q0 33 42 104h23l30 66h-95q0 33 42 104h101l83 180q31 -15 77 -82l-45 -98h72l50 107q31 -13 77 -81l-12 -26h45q0 -22 -27 -64q-25 -40 -43 -40
h-23l-31 -66h124zM209 261h73l30 66h-72z" />
    <glyph glyph-name="ellipsis" unicode="&#x2026;" horiz-adv-x="574" 
d="M132 8q0 -10 -24 -34q-23 -22 -32 -22q-8 0 -27 24t-19 34q0 15 22 35q21 21 33 21q6 0 26.5 -26t20.5 -32zM294 8q0 -10 -24 -34q-23 -22 -32 -22q-8 0 -27 24t-19 34q0 15 22 35q21 21 33 21q6 0 26.5 -26t20.5 -32zM456 8q0 -10 -24 -34q-23 -22 -32 -22q-8 0 -27 24
t-19 34q0 15 22 35q21 21 33 21q6 0 26.5 -26t20.5 -32z" />
  </font>
</defs>
</svg>
